<?xml version="1.0" encoding="UTF-8"?> <svg xmlns="http://www.w3.org/2000/svg" width="210" height="210" viewBox="0 0 210 210" fill="none"><path d="M193.5 103.9C193.3 98 191.4 92.6 188.2 88.1L170.7 44.7C174.7 43.4 178.1 41.1 180.1 39.5C180.7 39 181 38.4 181.1 37.7C181.2 36.9 181 36.2 180.5 35.5C179.4 34.2 177.4 33.9 175.9 34.9C173 36.9 168.7 39.2 164.4 39.2C159.7 39.2 155.2 37.2 150.9 35.3H150.8C146.4 33.4 141.8 31.3 137.1 31.3H120C117.8 25.2 111.9 20.8 105 20.8C98.1 20.8 92.3 25.2 90 31.3H72.8C68 31.3 63.5 33.3 59 35.3H58.9C54.6 37.2 50.1 39.2 45.4 39.2C41.1 39.2 36.8 36.9 33.9 34.9C32.4 33.9 30.4 34.1 29.4 35.5C28.9 36.1 28.6999 36.9 28.7999 37.7C28.9 38.4 29.1999 39.1 29.7999 39.5C31.7999 41.1 35.1999 43.5 39.2999 44.8L23.5 88V88.1C20.4 92.6 18.5 98 18.2 103.9V112C18.2 128 30.9 141.1 46.4 141.1C61.9 141.1 74.5999 128.1 74.5999 112V103.9C74.3999 98 72.5 92.6 69.3 88.1L51.7 44.5C54.6 43.7 57.3999 42.5 60.0999 41.4L60.2 41.3C61 41 61.7999 40.7 62.5999 40.4C67 38.7 71.9999 37 77.1999 37H89C89.1 42.8 92.2 47.8 96.8999 50.5V141.2C92.2 141.8 87.9999 142.9 84.8999 144.4C83.2 145.2 81.9 146.1 81 147.1C80 148.1 79.5 149.2 79.4 150.3V150.5V150.7V151.4C73.9 152.6 69.2 154.2 65.9 156C64.1 157 62.7 158 61.7999 159.1C60.8999 160.1 60.4 161.1 60.2 162.2H60.0999V162.6V162.8V163V174.2C60.0999 176.2 61.3999 178.2 63.7999 180.1C66.0999 181.9 69.3 183.6 73.3 185.1C82.1 188.4 93.2999 190.1 104.9 190.1C116.5 190.1 127.8 188.3 136.5 185.1C140.4 183.6 143.7 181.9 146 180.1C148.5 178.1 149.7 176.1 149.7 174.2V163V162.8V162.6V162.2H149.6C149.4 161.1 148.9 160.1 148 159.1C147 158 145.6 157 143.9 156C140.6 154.2 135.9 152.6 130.4 151.4V151.2H130.3C130.3 151 130.3 150.9 130.4 150.7V150.5V150.3C130.3 149.2 129.8 148.1 128.8 147.1C127.9 146.1 126.6 145.3 124.9 144.5C124.9 144.5 124.9 144.5 124.8 144.4C124.7 144.3 124.6 144.3 124.5 144.2C124.4 144.2 124.3 144.1 124.3 144.1H124.2C121.2 142.8 117.2 141.7 112.9 141.2V50.5C117.5 47.8 120.7 42.7 120.8 37H132.6C137.8 37 142.9 38.8 147.2 40.5C147.9 40.8 148.7 41.1 149.4 41.4L149.8 41.6C152.6 42.7 155.4 43.8 158.2 44.7L142.5 88V88.1C139.4 92.6 137.5 98 137.2 103.9V112C137.2 128 149.9 141.1 165.4 141.1C180.9 141.1 193.6 128.1 193.6 112L193.5 103.9ZM59.2999 39.4C55.2999 41 51.5999 42.5 47.5999 43.3C46.6999 43.5 45.8999 43.6 45.0999 43.6C39.2999 43.6 33.9 40 31.2 37.8C31 37.7 31 37.6 31 37.4C31 37.3 31 37.1 31.2 36.8C31.4 36.6 31.6999 36.4 32.0999 36.4C32.3999 36.4 32.6 36.5 32.9 36.6C36 38.7 40.6999 41.3 45.5999 41.3C50.6999 41.3 55.6 39.2 59.9 37.3L60.0999 37.2C64.5 35.3 68.7 33.4 73 33.4H89V34.7H77.1999C71.5999 34.7 66.2999 36.6 61.7999 38.3C61 38.8 60.2 39.1 59.2999 39.4ZM72.4 105C72.4 115.5 66.5 124.7 58 129.1C57.9 129.1 57.7999 129.2 57.7 129.2H57.5999V129.3C54.1999 131 50.4 131.9 46.4 131.9C32 131.9 20.2999 119.8 20.2999 105C20.2999 90.2 32 78.1 46.4 78.1C60.7 78.1 72.4 90.2 72.4 105ZM54.5 132.9C55.5999 132.6 56.5999 132.2 57.5999 131.7V136.3C56.5999 136.8 55.5999 137.2 54.5 137.6V132.9ZM46.4 134.1C47.8 134.1 49.1999 134 50.5999 133.8V138.6C49.1999 138.8 47.9 138.9 46.4 138.9C33.8 138.9 23.1999 129.6 20.7999 117.3C25.2999 127.2 35.1 134.1 46.4 134.1ZM46.4 75.9C39.1 75.9 32.5 78.8 27.4 83.5L41.4 45.3C42.6 45.6 43.7999 45.7 45.0999 45.7C46.0999 45.7 47.0999 45.6 48.0999 45.4C48.5999 45.3 49.0999 45.2 49.5999 45.1L65 83.2C60 78.7 53.5 75.9 46.4 75.9ZM105 187.9C93.6 187.9 82.7 186.2 74.0999 183C70.3999 181.6 67.2999 180 65.1999 178.4C63.2999 176.9 62.2999 175.4 62.2999 174.2V167.2C62.7999 167.7 63.3 168.1 63.9 168.6C66.2 170.4 69.4 172.1 73.4 173.6C82.2999 177 93.5 178.8 105 178.8C116.5 178.8 127.7 176.9 136.6 173.6C138.4 172.9 140 172.2 141.5 171.4V180.5C139.9 181.4 138 182.3 135.8 183.1C127.3 186.2 116.4 187.9 105 187.9ZM144.8 166.8C142.7 168.4 139.6 170.1 135.9 171.5C127.2 174.8 116.3 176.6 105 176.6C93.7 176.6 82.7999 174.8 74.0999 171.5C70.3999 170.1 67.2999 168.5 65.1999 166.8C63.2999 165.3 62.2999 163.9 62.2999 162.7C62.2999 162 62.7 161.2 63.4 160.4C64.2 159.5 65.4 158.6 67 157.8C70 156.1 74.2999 154.7 79.5 153.5V159.2C79.5 160.6 80.2999 162 81.6999 163.2C82.9999 164.3 84.7999 165.3 87.2 166.2C92 168 98.3999 169 105.1 169C111.8 169 118.2 168 123 166.2C125.3 165.3 127.2 164.3 128.5 163.2C129.8 162.1 130.6 160.9 130.7 159.6C131.7 158.5 133.4 157.9 135.9 157.8C138.1 157.7 140.5 158 143 158.3H143.2C143.6 158.3 143.9 158.4 144.3 158.4C145.3 159 146.1 159.7 146.6 160.3C147.3 161.1 147.7 161.9 147.7 162.6C147.7 163.9 146.6 165.3 144.8 166.8ZM87.0999 157.5C91.8999 159.3 98.3 160.3 105 160.3C111.7 160.3 118.1 159.3 122.9 157.5C124 157.1 125 156.7 125.8 156.2V162.5C124.8 163.1 123.6 163.7 122.1 164.3C117.5 166 111.4 167 105 167C98.5 167 92.4999 166.1 87.8999 164.3C85.8999 163.5 84.1999 162.6 83.0999 161.7C82.0999 160.9 81.5999 160 81.5999 159.3V154.5L81.6999 154.6C82.9999 155.6 84.7999 156.7 87.0999 157.5ZM126.9 152.9C125.8 153.8 124.1 154.7 122.1 155.5C117.5 157.2 111.4 158.2 105 158.2C98.5 158.2 92.4999 157.3 87.8999 155.5C85.8999 154.7 84.1999 153.8 83.0999 152.9C82.0999 152.1 81.5999 151.2 81.5999 150.5C81.5999 149.9 81.8999 149.3 82.5999 148.6C83.2999 147.8 84.3999 147.1 85.8999 146.4C88.7 145 92.6 144 97 143.4V149V149.1L97.0999 149.3C97.0999 149.3 97.0999 149.3 97.0999 149.4C97.1999 149.6 97.2999 149.7 97.3999 149.9C97.7 150.4 98.0999 150.9 98.5999 151.4C99.6999 152.3 101.6 153.4 105 153.4C108.4 153.4 110.3 152.3 111.4 151.4C111.9 151 112.3 150.5 112.6 149.9C112.7 149.7 112.8 149.5 112.9 149.4C112.9 149.4 112.9 149.4 112.9 149.3L113 149.1V149V148.9V148.8V148.2C113.3 147.6 114 147.1 115.2 146.7C116.3 146.3 117.8 146.1 119.4 146.1C120.1 146.1 120.9 146.1 121.7 146.1C121.8 146.1 121.8 146.1 121.9 146.1C122.9 146.3 123.6 146.4 124 146.4H124.1C125.5 147.1 126.6 147.8 127.4 148.6C128 149.3 128.4 149.9 128.4 150.5C128.4 151.2 127.9 152.1 126.9 152.9ZM105 23C108.5 23 111.7 24.3 114.1 26.4C118.6 34.6 114.8 42.2 111 45.4C106.2 49.4 99.9999 48.4 95.0999 46.4C92.6999 43.9 91.2 40.5 91.2 36.8C91.2 29.1 97.4 23 105 23ZM105 52.7C106.1 52.7 107.2 52.6 108.3 52.4V150.7C107.5 151 106.4 151.2 105 151.2C102.3 151.2 100.8 150.4 100 149.7C99.6 149.3 99.2999 149 99.2 148.8C99.1 148.7 99.0999 148.6 99.0999 148.6V51.6C100.9 52.3 102.9 52.7 105 52.7ZM165.4 78.1C179.8 78.1 191.4 90.2 191.4 105C191.4 115.5 185.5 124.7 177 129.1C176.9 129.1 176.8 129.2 176.7 129.2H176.6V129.3C173.2 131 169.4 131.9 165.4 131.9C151 131.9 139.3 119.8 139.3 105C139.3 90.2 151 78.1 165.4 78.1ZM161.9 45.4C162.9 45.6 163.9 45.7 164.9 45.7C166.2 45.7 167.4 45.5 168.7 45.3L184 83.2C179 78.7 172.5 75.9 165.4 75.9C158.1 75.9 151.5 78.8 146.4 83.5L160.4 45.1C161 45.2 161.4 45.3 161.9 45.4ZM165.4 134.1C166.8 134.1 168.2 134 169.6 133.8V138.6C168.2 138.8 166.9 138.9 165.4 138.9C152.8 138.9 142.2 129.6 139.8 117.3C144.3 127.2 154.1 134.1 165.4 134.1ZM173.5 132.9C174.6 132.6 175.6 132.2 176.6 131.7V136.3C175.6 136.8 174.6 137.2 173.5 137.6V132.9ZM179 37.4C179 37.6 178.9 37.7 178.8 37.8C176.1 40 170.7 43.6 164.9 43.6C164.1 43.6 163.2 43.5 162.4 43.3C158.5 42.5 154.7 41 150.7 39.4H150.6C149.8 39.1 148.9 38.7 148.1 38.4C143.6 36.6 138.3 34.8 132.7 34.8H121V33.5H137.2C141.5 33.5 145.7 35.3 150.1 37.3L150.3 37.4C154.6 39.3 159.5 41.4 164.6 41.4C169.5 41.4 174.2 38.9 177.3 36.7C177.9 36.3 178.6 36.4 179 36.8C179 37 179.1 37.3 179 37.4Z" fill="#172B02"></path><path d="M159.9 114.1L158.3 116.7C158.1 117 158.1 117.4 158.3 117.7C158.5 118 158.8 118.2 159.2 118.2H175V116.2H161L161.7 115.1C163 112.8 163.5 110.2 163.3 107.6H171.6V105.8H163C162.7 104.7 162.3 103.7 161.8 102.7C160.9 101 160.4 99.5 160.4 98.1C160.4 94.7 163.3 91.9 166.8 91.9C170.4 91.9 173.3 94.7 173.3 98.1H175.3C175.3 93.6 171.5 89.9 166.8 89.9C162.1 89.9 158.4 93.6 158.4 98.1C158.4 99.8 159 101.7 160.1 103.7C160.5 104.4 160.8 105.1 161 105.8H155.9V107.6H161.4C161.5 109.8 161.1 112.1 159.9 114.1Z" fill="#172B02"></path><path d="M47.6999 92C51.2999 92 54.1999 94.8 54.1999 98.2H56.1999C56.1999 93.7 52.3999 90 47.6999 90C42.9999 90 39.2999 93.7 39.2999 98.2C39.2999 99.9 39.8999 101.8 40.9999 103.8C41.3999 104.4 41.5999 105.1 41.7999 105.8H36.7999V107.8H42.2999C42.5999 110 42.0999 112.2 40.9999 114.2L39.3999 116.8C39.1999 117.1 39.1999 117.5 39.3999 117.8C39.5999 118.1 39.8999 118.3 40.2999 118.3H55.9999V116.3H41.9999L42.6999 115.2C43.9999 112.9 44.4999 110.4 44.2999 107.8H52.5999V105.8H43.9999C43.6999 104.8 43.2999 103.8 42.7999 102.8C41.8999 101.1 41.3999 99.6 41.3999 98.2C41.1999 94.8 44.0999 92 47.6999 92Z" fill="#172B02"></path></svg> 