<?xml version="1.0" encoding="UTF-8"?> <svg xmlns="http://www.w3.org/2000/svg" width="210" height="210" viewBox="0 0 210 210" fill="none"><path d="M59 147.9C56.1 147.9 53.8 150.7 53.8 154.1C53.8 157.5 56.1 160.3 59 160.3C61.9 160.3 64.2 157.5 64.2 154.1C64.2 150.7 61.9 147.9 59 147.9ZM59 150.3C60.2 150.3 61.3001 151.3 61.7001 152.2C62.1 153.2 62.8 156 60 157.1C59.1 157.6 57.9001 157.3 57.2001 156.8C56.9001 156.6 56.7001 156.4 56.4001 156.2C56.0001 155.6 55.8 154.8 55.8 154C55.9 152 57.3 150.3 59 150.3Z" fill="#172B02"></path><path d="M165.2 120.5C165.1 118.3 164.1 116.4 162.4 115.1C160.5 113.6 157.9 113.1 155.4 113.7C160.2 106.6 162.5 99.1 162.5 90.6C162.5 83.5 160.2 75.4 156 67.9C148.7 51.6 132.4 41 114.3 41C89.2 41 68.8 61.1 68.8 85.9C68.8 101.3 76.7 115.4 89.8 123.7C88.2 124.3 86.6 125 84.9 126C81 128.3 76.8 131.5 73 134.7L63.2 143L62.3 142.1C60.4 140.3 57.4 140.4 55.6 142.3L46.2 152.1C45.3 153 44.9 154.2 44.9 155.5C44.9 156.8 45.4 157.9 46.4 158.8L73.9 185.1C74.8 186 76 186.4 77.2 186.4C78.4 186.4 79.7 185.9 80.6 184.9L90 175.1C91.5 173.5 91.7 171.2 90.6 169.3L96.3 163.5L96.4 163.4C97.3 162.5 98.1 161.9 99.1 161.5C100.2 161.1 101.5 160.9 103.3 160.9L122.6 160.8C129.6 160.8 137.7 156.3 147.3 147.2C152.3 142.5 157.1 137.8 160.8 132.7C164.2 127.8 165.4 124.6 165.2 120.5ZM85 171.5C83.9 173.3 79.6 178.7 77.8 180.5C75.6 182.2 73.4 181.2 71.8 180.1L47.7 157.1C47.2 156.6 46.9 156 46.9 155.3C46.9 154.6 47.1 154 47.6 153.5L57 143.7C58 142.7 59.6 142.7 60.6 143.6L83 165C83.2 165.4 83.5 165.7 83.8 166.1C85.1 167.7 86.3 169.4 85 171.5ZM128.4 126.1H127.7C126.6 125.3 125.3 124.7 123.9 124.5C118.2 123.4 105.2 122.5 96 122.5C95 122.5 93.9 122.6 92.8 122.8L91.5 122.2C78.6 114.4 70.9 100.8 70.9 85.9C70.9 62.4 90.3 43.2 114.2 43.2C138.1 43.2 157.5 62.3 157.5 85.9C157.5 104 145.8 120.2 128.4 126.1ZM95.9 124.6C105.9 124.6 118.4 125.6 123.3 126.6C126.4 127.2 128.1 128.9 128.1 131.5C128.1 133.3 127.7 134.6 126.8 135.5C125.4 136.9 123 136.9 121.1 136.9H101.3V139.1H101.5C103.5 139.1 108.5 139.3 110.7 139.5C112 139.6 113.4 139.7 114.4 139.8H115.6C117.4 139.9 119 139.9 120.4 139.9C123.6 139.9 127.8 139.3 130.2 138.1C133.1 136.6 136.7 133.8 141.1 129.9C144 127.4 146.5 124.6 148.8 122.1C149.8 121 150.8 119.9 151.6 119C154.7 115.8 158.6 114.8 160.9 116.6C162 117.5 162.6 118.6 162.8 120C163 121.9 162.2 124.1 160.8 126C158.3 129.1 155.6 132.1 153 135C152.5 135.6 151.9 136.2 151.4 136.8C135.9 154.1 125.4 156 121.6 156H102.6C100.4 156 98.7 156.3 97.2 156.9C95.8 157.5 94.7 158.3 93.4 159.6L87.3 165.9L64.7 144.3L74.3 136.2C78.1 133.1 82.1 129.9 85.9 127.7C89.7 125.7 92.9 124.6 95.9 124.6Z" fill="#172B02"></path><path d="M139.5 75.7H121.3L115.7 57.1C115.5 56.4 114.8 55.9 114.1 55.9C113.4 55.9 112.7 56.4 112.5 57.1L106.9 75.7H88.5001C87.8001 75.7 87.1001 76.1 86.9001 76.8C86.7001 77.5 86.9001 78.3 87.5001 78.7L102.4 90.3L96.8001 109C96.6001 109.7 96.9001 110.5 97.5001 110.9C97.8001 111.1 98.1001 111.2 98.5001 111.2C98.9001 111.2 99.2001 111.1 99.5001 110.8L114.2 99.3C114.3 99.5 114.4 99.7 114.6 99.8L128.6 111.7C128.9 112 129.3 112.1 129.7 112.1C130 112.1 130.3 112 130.6 111.8C131.2 111.4 131.5 110.6 131.3 109.9L127 95.2C126.9 94.8 126.6 94.4 126.2 94.2C125.8 94 125.4 93.9 124.9 94.1L118.6 96L125.1 91L140.5 78.9C141.1 78.5 141.3 77.7 141.1 77C140.8 76.2 140.2 75.7 139.5 75.7ZM124.9 96.4L128.3 108.8L116.7 98.9L124.9 96.4ZM99.5001 107.9L104.7 90.6C104.9 89.9 104.7 89.2 104.1 88.8L90.3001 78H107.3C108 78 108.7 77.5 108.9 76.8L114 59.8L119.1 76.8C119.3 77.5 120 78 120.7 78H137.7L99.5001 107.9Z" fill="#172B02"></path></svg> 