<?xml version="1.0" encoding="UTF-8"?> <svg xmlns="http://www.w3.org/2000/svg" width="210" height="210" viewBox="0 0 210 210" fill="none"><path d="M93.3257 117.345L90.1891 122.544C89.797 123.144 89.797 123.943 90.1891 124.543C90.5812 125.143 91.1693 125.543 91.9534 125.543H122.928V121.544H95.4822L96.8544 119.345C99.4029 114.746 100.383 109.548 99.9911 104.349H116.262V100.75H99.4029C98.8148 98.5508 98.0307 96.5513 97.0505 94.5519C95.2861 91.1529 94.3059 88.1538 94.3059 85.3546C94.3059 78.5565 99.9911 72.9581 106.852 72.9581C113.91 72.9581 119.595 78.5565 119.595 85.3546H123.516C123.516 76.3572 116.066 68.9593 106.852 68.9593C97.6386 68.9593 90.3851 76.3572 90.3851 85.3546C90.3851 88.7536 91.5614 92.5525 93.7178 96.5513C94.502 97.9509 95.0901 99.3505 95.4822 100.75H85.4841V104.349H96.2663C96.4623 108.748 95.6782 113.347 93.3257 117.345Z" fill="#172B02"></path><path d="M5.82329 114.507L5.64651 114.684L5.82329 114.861L76.98 186.018L77.1568 186.194L77.3336 186.018L80.0066 183.345L80.1834 183.168L80.0066 182.991L8.84984 111.834L8.67306 111.658L8.49629 111.834L5.82329 114.507Z" fill="#172B02" stroke="#172B02" stroke-width="0.5" stroke-miterlimit="10"></path><path fill-rule="evenodd" clip-rule="evenodd" d="M13.4576 127.488C9.07268 133.503 6.48528 140.912 6.48528 148.925C6.48528 169.044 22.7948 185.353 42.9137 185.353C50.927 185.353 58.336 182.766 64.3509 178.381L63.1333 177.163C57.4384 181.248 50.4569 183.653 42.9137 183.653C23.7337 183.653 8.18527 168.105 8.18528 148.925C8.18528 141.382 10.5902 134.4 14.6752 128.705L13.4576 127.488ZM66.0978 174.782L67.3015 175.986C68.2379 175.141 69.1302 174.249 69.9745 173.313L68.7708 172.109C67.9287 173.047 67.0363 173.94 66.0978 174.782ZM19.7298 123.068C18.7912 123.91 17.8988 124.802 17.0567 125.741L15.853 124.537C16.6974 123.601 17.5897 122.709 18.526 121.864L19.7298 123.068ZM71.1523 169.144C75.2372 163.45 77.642 156.468 77.642 148.925C77.642 129.745 62.0936 114.197 42.9137 114.197C35.3705 114.197 28.3891 116.602 22.6943 120.686L21.4767 119.469C27.4915 115.084 34.9004 112.497 42.9137 112.497C63.0325 112.497 79.342 128.806 79.342 148.925C79.342 156.938 76.7547 164.347 72.3699 170.362L71.1523 169.144Z" fill="#172B02"></path><path d="M13.4576 127.488L13.8112 127.134L13.3979 126.721L13.0536 127.193L13.4576 127.488ZM64.3509 178.381L64.6454 178.785L65.1177 178.441L64.7044 178.027L64.3509 178.381ZM63.1333 177.163L63.4869 176.81L63.1867 176.51L62.8419 176.757L63.1333 177.163ZM14.6752 128.705L15.0815 128.997L15.3289 128.652L15.0288 128.352L14.6752 128.705ZM67.3015 175.986L66.948 176.339L67.2838 176.675L67.6364 176.357L67.3015 175.986ZM66.0978 174.782L65.7639 174.41L65.371 174.762L65.7442 175.135L66.0978 174.782ZM69.9745 173.313L70.3458 173.648L70.6639 173.295L70.3281 172.959L69.9745 173.313ZM68.7708 172.109L69.1243 171.755L68.7511 171.382L68.3986 171.775L68.7708 172.109ZM19.7298 123.068L20.0637 123.44L20.4565 123.088L20.0833 122.714L19.7298 123.068ZM17.0567 125.741L16.7032 126.094L17.0764 126.468L17.4289 126.075L17.0567 125.741ZM15.853 124.537L15.4817 124.202L15.1637 124.555L15.4994 124.891L15.853 124.537ZM18.526 121.864L18.8795 121.511L18.5438 121.175L18.1911 121.493L18.526 121.864ZM71.1523 169.144L70.746 168.853L70.4986 169.198L70.7987 169.498L71.1523 169.144ZM22.6943 120.686L22.3407 121.04L22.6408 121.34L22.9857 121.093L22.6943 120.686ZM21.4767 119.469L21.1821 119.065L20.7098 119.409L21.1231 119.822L21.4767 119.469ZM72.3699 170.362L72.0163 170.716L72.4296 171.129L72.7739 170.657L72.3699 170.362ZM6.98528 148.925C6.98528 141.021 9.53698 133.715 13.8617 127.782L13.0536 127.193C8.60838 133.291 5.98528 140.802 5.98528 148.925L6.98528 148.925ZM42.9137 184.853C23.071 184.853 6.98528 168.768 6.98528 148.925L5.98528 148.925C5.98528 169.32 22.5187 185.853 42.9137 185.853L42.9137 184.853ZM64.0563 177.977C58.1242 182.302 50.8176 184.853 42.9137 184.853L42.9137 185.853C51.0364 185.853 58.5479 183.23 64.6454 178.785L64.0563 177.977ZM64.7044 178.027L63.4869 176.81L62.7797 177.517L63.9973 178.735L64.7044 178.027ZM42.9137 184.153C50.5649 184.153 57.6477 181.714 63.4247 177.57L62.8419 176.757C57.2291 180.783 50.3489 183.153 42.9137 183.153L42.9137 184.153ZM7.68528 148.925C7.68527 168.381 23.4576 184.153 42.9137 184.153L42.9137 183.153C24.0098 183.153 8.68527 167.829 8.68528 148.925L7.68528 148.925ZM14.2689 128.414C10.125 134.191 7.68528 141.274 7.68528 148.925L8.68528 148.925C8.68528 141.49 11.0554 134.61 15.0815 128.997L14.2689 128.414ZM15.0288 128.352L13.8112 127.134L13.1041 127.841L14.3216 129.059L15.0288 128.352ZM67.6551 175.632L66.4513 174.428L65.7442 175.135L66.948 176.339L67.6551 175.632ZM69.6032 172.978C68.7704 173.901 67.8902 174.782 66.9667 175.614L67.6364 176.357C68.5855 175.501 69.4899 174.597 70.3458 173.648L69.6032 172.978ZM68.4172 172.462L69.621 173.666L70.3281 172.959L69.1243 171.755L68.4172 172.462ZM66.4317 175.154C67.3836 174.3 68.2888 173.395 69.1429 172.443L68.3986 171.775C67.5686 172.7 66.6889 173.58 65.7639 174.41L66.4317 175.154ZM19.3959 122.696C18.4439 123.55 17.5387 124.455 16.6846 125.407L17.4289 126.075C18.2589 125.15 19.1386 124.27 20.0637 123.44L19.3959 122.696ZM17.4103 125.387L16.2065 124.184L15.4994 124.891L16.7032 126.094L17.4103 125.387ZM16.2243 124.872C17.0572 123.948 17.9373 123.068 18.8608 122.235L18.1911 121.493C17.242 122.349 16.3376 123.253 15.4817 124.202L16.2243 124.872ZM18.1724 122.218L19.3762 123.421L20.0833 122.714L18.8795 121.511L18.1724 122.218ZM71.5586 169.436C75.7024 163.659 78.142 156.576 78.142 148.925L77.142 148.925C77.142 156.36 74.772 163.24 70.746 168.853L71.5586 169.436ZM78.142 148.925C78.142 129.469 62.3698 113.697 42.9137 113.697L42.9137 114.697C61.8175 114.697 77.142 130.021 77.142 148.925L78.142 148.925ZM42.9137 113.697C35.2626 113.697 28.1798 116.136 22.4028 120.28L22.9857 121.093C28.5984 117.067 35.4785 114.697 42.9137 114.697L42.9137 113.697ZM21.1231 119.822L22.3407 121.04L23.0478 120.333L21.8302 119.115L21.1231 119.822ZM21.7712 119.873C27.7034 115.548 35.0098 112.997 42.9137 112.997L42.9137 111.997C34.791 111.997 27.2796 114.62 21.1821 119.065L21.7712 119.873ZM42.9137 112.997C62.7564 112.997 78.842 129.082 78.842 148.925L79.842 148.925C79.842 128.53 63.3086 111.997 42.9137 111.997L42.9137 112.997ZM78.842 148.925C78.842 156.829 76.2904 164.135 71.9658 170.067L72.7739 170.657C77.219 164.559 79.842 157.048 79.842 148.925L78.842 148.925ZM70.7987 169.498L72.0163 170.716L72.7234 170.008L71.5058 168.791L70.7987 169.498Z" fill="#172B02"></path><path fill-rule="evenodd" clip-rule="evenodd" d="M24.4209 138.451L22.797 140.075L16.8179 146.054C16.4274 146.445 16.4274 147.078 16.8179 147.468L24.8378 155.488C25.2284 155.879 25.8615 155.879 26.2521 155.488L33.8551 147.885L32.4408 146.471L25.545 153.367L18.9392 146.761L24.2112 141.489L25.8351 139.865L24.4209 138.451ZM35.1139 143.798L38.1845 146.869L38.1845 145.556L38.1845 141.523L37.7869 141.125L35.1139 143.798ZM31.1811 134.519L30.8973 134.803L28.5081 137.192L27.0939 135.778L29.4831 133.389L29.7669 133.105L31.1811 134.519ZM47.5263 145.518L47.5263 140.728L50.9406 144.143L60.1658 153.368L66.7716 146.762L42.8554 122.845L33.8541 131.846L32.4399 130.432L42.1483 120.724C42.5388 120.333 43.172 120.333 43.5625 120.724L68.8929 146.055C69.2834 146.446 69.2834 147.079 68.8929 147.469L60.873 155.489C60.4824 155.88 59.8493 155.88 59.4587 155.489L51.5263 147.557L49.5263 145.557L49.5263 147.518L47.5263 145.518ZM47.5263 150.864L47.5263 156.21L49.5263 158.21L49.5263 152.864L47.5263 150.864ZM49.5263 163.556L47.5263 161.556L47.5263 175.832L38.1845 175.832L38.1845 152.215L36.1845 150.215L36.1845 176.832C36.1845 177.385 36.6322 177.832 37.1845 177.832L48.5263 177.832C49.0786 177.832 49.5263 177.385 49.5263 176.832L49.5263 163.556Z" fill="#172B02"></path><path d="M39.3543 106.515C39.1886 104.531 39.1041 102.524 39.1041 100.498C39.1041 61.5797 70.2276 30 108.674 30C147.121 30 178.244 61.5797 178.244 100.498C178.244 139.416 147.08 170.995 108.674 170.995C99.7812 170.995 91.2764 169.302 83.4569 166.217" stroke="#172B02" stroke-width="3" stroke-miterlimit="10"></path><path d="M170 65.5C184 90.5 184 122.5 170 145C158.357 162.092 142.296 171.944 125.5 175.599L125.5 167.923C134.393 165.593 142.466 161.663 148.5 157C164.677 144.5 177.514 125.198 177.317 101.425C177.146 80.8448 173.281 74.8673 170 65.5Z" fill="#172B02"></path><path d="M169.218 66.0708C183.218 91.0708 183.218 123.071 169.218 145.571C147.791 177.027 111.401 183.959 83 172.88" stroke="#172B02"></path><path d="M169.218 66.0708C183.218 91.0708 183.218 123.071 169.218 145.571C147.791 177.027 111.401 183.959 83 172.88" stroke="#172B02" stroke-width="3"></path><path d="M113.218 172V179" stroke="#172B02" stroke-width="6"></path></svg> 