<?xml version="1.0" encoding="utf-8"?>
<!-- Generator: Adobe Illustrator 23.0.1, SVG Export Plug-In . SVG Version: 6.00 Build 0)  -->
<svg version="1.1" xmlns="http://www.w3.org/2000/svg" xmlns:xlink="http://www.w3.org/1999/xlink" x="0px" y="0px"
	 viewBox="0 0 1024 1094" style="enable-background:new 0 0 1024 1094;" xml:space="preserve">
<style type="text/css">
	.st0{fill:#1D1F25;}
	.st1{fill:#E0ECDE;}
	.st2{opacity:0;fill:#FFFFFF;}
	.st3{fill:#090305;}
	.st4{fill:#133BBE;}
	.st5{fill:#1B41EA;}
	.st6{fill:#FFFFFF;}
	.st7{fill:#FDAC41;}
	.st8{fill:#EE5938;}
	.st9{fill:#F8F8F8;}
	.st10{fill:#D12476;}
	.st11{fill:#8C28E2;}
</style>
<g id="Layer_1">
	<rect x="1" y="1024" class="st0" width="1024" height="70"/>
	<g>
		<g>
			<g>
				<path class="st1" d="M279.12,1043.44h5.2c4.09,0,7.46,1.08,10.11,3.2c2.67,2.14,4,5.19,4,9.15c0,4.08-1.32,7.2-3.96,9.36
					c-2.65,2.17-6.06,3.24-10.24,3.24h-5.1V1043.44z M282.25,1065.56h1.1c1.62,0,3.16-0.16,4.6-0.48c1.45-0.33,2.71-0.86,3.79-1.62
					c1.07-0.78,1.94-1.77,2.58-2.99c0.64-1.22,0.97-2.74,0.97-4.55c0-1.79-0.32-3.32-0.95-4.59c-0.63-1.28-1.51-2.26-2.66-2.97
					c-1.13-0.72-2.38-1.25-3.75-1.58c-1.37-0.35-2.9-0.5-4.59-0.5h-1.1V1065.56z"/>
				<path class="st1" d="M303.03,1061.16c0.04,1.38,0.49,2.59,1.33,3.61c0.87,1.02,1.99,1.51,3.36,1.51c1.09,0,1.98-0.25,2.69-0.75
					c0.7-0.51,1.36-1.25,1.98-2.26l2.54,1.43c-0.73,1.32-1.75,2.35-3.03,3.12c-1.28,0.74-2.68,1.11-4.21,1.11
					c-2.34,0-4.2-0.76-5.6-2.31c-1.38-1.59-2.07-3.51-2.07-5.83c0-2.43,0.66-4.45,1.98-6.01c1.29-1.56,3.17-2.31,5.64-2.31
					c2.41,0,4.21,0.75,5.44,2.31c1.24,1.54,1.87,3.52,1.87,5.93v0.46H303.03z M311.93,1058.91c-0.19-1.2-0.63-2.15-1.39-2.83
					c-0.75-0.7-1.72-1.05-2.92-1.05c-0.57,0-1.12,0.08-1.62,0.27c-0.5,0.2-0.94,0.48-1.33,0.82c-0.38,0.36-0.71,0.77-0.98,1.25
					c-0.25,0.49-0.42,0.99-0.5,1.55H311.93z"/>
				<path class="st1" d="M323.78,1056.46c-0.45-0.92-1.11-1.37-2-1.37c-0.42,0-0.8,0.15-1.13,0.45c-0.34,0.3-0.5,0.67-0.5,1.08
					c0,0.4,0.13,0.75,0.38,1.02c0.25,0.28,0.6,0.53,1.05,0.78c0.29,0.13,0.51,0.25,0.67,0.3c0.15,0.09,0.4,0.21,0.77,0.37
					c0.17,0.07,0.33,0.16,0.46,0.2c0.13,0.04,0.23,0.08,0.3,0.13c1.1,0.51,1.99,1.09,2.64,1.76c0.64,0.65,0.97,1.55,0.97,2.64
					c0,1.46-0.54,2.69-1.6,3.67c-1.04,0.98-2.31,1.46-3.77,1.46c-0.61,0-1.19-0.08-1.74-0.25c-0.55-0.15-1.07-0.39-1.56-0.69
					c-0.48-0.3-0.89-0.66-1.26-1.09c-0.37-0.44-0.65-0.92-0.85-1.43l2.57-1.15c0.73,1.32,1.68,1.97,2.84,1.97
					c0.47,0,0.9-0.12,1.29-0.38c0.41-0.25,0.71-0.57,0.89-0.95c0.19-0.4,0.23-0.81,0.12-1.28c-0.11-0.43-0.45-0.87-1.03-1.27
					l-2.95-1.55c-0.5-0.26-0.95-0.53-1.33-0.8c-0.38-0.27-0.69-0.55-0.93-0.84c-0.25-0.3-0.43-0.63-0.56-0.98
					c-0.12-0.38-0.18-0.79-0.18-1.28c0-1.26,0.44-2.32,1.34-3.19c0.89-0.88,1.97-1.31,3.26-1.31c1.96,0,3.38,0.88,4.27,2.71
					L323.78,1056.46z"/>
				<path class="st1" d="M334.54,1045.83c0,0.55-0.2,1.03-0.6,1.42c-0.4,0.4-0.89,0.6-1.46,0.6c-0.58,0-1.07-0.19-1.47-0.6
					c-0.4-0.39-0.6-0.87-0.6-1.42c0-0.58,0.2-1.07,0.6-1.48c0.4-0.41,0.89-0.6,1.47-0.6c0.57,0,1.06,0.19,1.46,0.6
					C334.34,1044.76,334.54,1045.24,334.54,1045.83z M333.98,1068.4h-3.01v-15.49h3.01V1068.4z"/>
				<path class="st1" d="M353.39,1068.12c0,2.9-0.55,5.17-1.67,6.79c-1.12,1.58-3.1,2.37-5.94,2.37c-2.2,0-4-0.63-5.4-1.88
					c-1.38-1.25-2.09-2.96-2.13-5.13h2.99c0,1.39,0.44,2.46,1.28,3.24c0.87,0.75,2,1.13,3.4,1.13c1.71,0,2.88-0.49,3.52-1.5
					c0.63-1,0.94-2.38,0.94-4.2v-2.95h-0.07c-0.62,0.95-1.39,1.67-2.31,2.18c-0.92,0.52-1.91,0.77-2.98,0.77
					c-2.32,0-4.15-0.8-5.48-2.41c-1.33-1.62-1.98-3.59-1.98-5.96c0-2.24,0.67-4.12,2.02-5.69c1.36-1.62,3.13-2.41,5.31-2.41
					c2.28,0,4.11,1.04,5.42,3.08h0.07v-2.63h3V1068.12z M345.49,1066.28c1.57,0,2.8-0.54,3.69-1.61c0.91-1.11,1.37-2.45,1.37-4.01
					c0-1.55-0.46-2.86-1.37-3.95c-0.88-1.07-2.12-1.62-3.69-1.62c-1.5,0-2.7,0.55-3.61,1.67c-0.89,1.08-1.34,2.38-1.34,3.9
					c0,1.56,0.45,2.88,1.34,3.97C342.8,1065.74,344,1066.28,345.49,1066.28z"/>
				<path class="st1" d="M360.29,1054.99h0.07c0.43-0.83,1.09-1.44,1.93-1.88c0.85-0.45,1.77-0.65,2.77-0.65
					c1.02,0,1.88,0.14,2.6,0.45c0.7,0.3,1.28,0.74,1.71,1.32c0.44,0.58,0.75,1.27,0.94,2.1c0.19,0.82,0.28,1.78,0.28,2.82v9.24h-3
					v-8.87c0-1.53-0.23-2.64-0.66-3.34c-0.45-0.73-1.37-1.1-2.77-1.1c-0.52,0-0.95,0.05-1.3,0.15c-0.36,0.09-0.67,0.23-0.94,0.42
					c-0.27,0.19-0.49,0.41-0.67,0.65c-0.17,0.25-0.35,0.51-0.5,0.81c-0.07,0.14-0.13,0.35-0.19,0.59c-0.05,0.24-0.1,0.49-0.14,0.73
					c-0.05,0.26-0.09,0.51-0.1,0.77c-0.02,0.26-0.03,0.46-0.03,0.61v1.45v7.12h-3v-15.49h3V1054.99z"/>
				<path class="st1" d="M384.14,1039.67h3v15.82h0.07c1.38-2.03,3.19-3.03,5.44-3.03c2.17,0,3.95,0.8,5.31,2.41
					c1.35,1.56,2.03,3.45,2.03,5.69c0,2.37-0.67,4.34-2,5.96c-1.34,1.61-3.17,2.41-5.47,2.41c-1.06,0-2.06-0.25-2.99-0.77
					c-0.92-0.51-1.69-1.23-2.31-2.18h-0.07v2.42h-3V1039.67z M391.91,1066.28c1.58,0,2.81-0.54,3.7-1.61
					c0.91-1.11,1.36-2.45,1.36-4.01c0-1.55-0.45-2.86-1.36-3.95c-0.89-1.07-2.12-1.62-3.7-1.62c-1.49,0-2.7,0.55-3.61,1.67
					c-0.89,1.08-1.34,2.38-1.34,3.9c0,1.56,0.45,2.88,1.34,3.97C389.21,1065.74,390.42,1066.28,391.91,1066.28z"/>
				<path class="st1" d="M400.41,1052.91h3.5l5.27,9.83l4.91-9.83h3.37l-12.65,24.37h-3.4l6.15-11.53L400.41,1052.91z"/>
				<path class="st1" d="M432.59,1062.13l-2.87,6.26h-3.37l12-26.01l12.01,26.01h-3.37l-2.88-6.26H432.59z M438.36,1049.2
					l-4.47,10.11h8.94L438.36,1049.2z"/>
				<path class="st1" d="M455.26,1068.4h-3v-28.73h3V1068.4z"/>
				<path class="st1" d="M462.66,1068.4h-2.99v-28.73h2.99V1068.4z"/>
				<path class="st1" d="M474.07,1056.56v2.47h-7.29v-2.47H474.07z"/>
				<path class="st1" d="M485.75,1042.68c-0.94-0.43-1.61-0.62-2-0.62c-0.64,0-1.12,0.18-1.4,0.6c-0.29,0.4-0.48,0.9-0.6,1.5
					c-0.06,0.45-0.1,0.79-0.12,1.05c-0.01,0.24-0.02,0.6-0.02,1.03v6.66h4.14v2.78h-4.14v12.71h-2.99v-12.71h-1.37v-2.78h1.37v-7.55
					c0-4.06,1.67-6.09,5.03-6.09c0.74,0,1.43,0.13,2.11,0.4V1042.68z"/>
				<path class="st1" d="M490.39,1055.43h0.09c0.39-0.93,0.94-1.66,1.68-2.18c0.74-0.55,1.6-0.79,2.59-0.79
					c0.83,0,1.65,0.24,2.47,0.75l-1.37,2.72c-0.48-0.42-1.1-0.63-1.83-0.63c-1.53,0-2.56,0.62-3.07,1.84
					c-0.22,0.58-0.38,1.17-0.46,1.72c-0.07,0.55-0.11,1.2-0.11,1.92v7.62h-3v-15.49h3V1055.43z"/>
				<path class="st1" d="M500.69,1061.16c0.05,1.38,0.48,2.59,1.33,3.61c0.88,1.02,1.99,1.51,3.37,1.51c1.09,0,1.99-0.25,2.69-0.75
					c0.7-0.51,1.36-1.25,1.98-2.26l2.53,1.43c-0.73,1.32-1.73,2.35-3.02,3.12c-1.27,0.74-2.68,1.11-4.22,1.11
					c-2.32,0-4.2-0.76-5.6-2.31c-1.37-1.59-2.07-3.51-2.07-5.83c0-2.43,0.65-4.45,1.98-6.01c1.28-1.56,3.16-2.31,5.62-2.31
					c2.42,0,4.23,0.75,5.45,2.31c1.25,1.54,1.86,3.52,1.86,5.93v0.46H500.69z M509.59,1058.91c-0.18-1.2-0.64-2.15-1.39-2.83
					c-0.74-0.7-1.72-1.05-2.92-1.05c-0.57,0-1.12,0.08-1.61,0.27c-0.5,0.2-0.95,0.48-1.34,0.82c-0.39,0.36-0.71,0.77-0.97,1.25
					c-0.24,0.49-0.43,0.99-0.52,1.55H509.59z"/>
				<path class="st1" d="M516.96,1061.16c0.05,1.38,0.5,2.59,1.34,3.61c0.86,1.02,1.98,1.51,3.36,1.51c1.1,0,1.99-0.25,2.69-0.75
					c0.7-0.51,1.37-1.25,1.98-2.26l2.53,1.43c-0.73,1.32-1.73,2.35-3,3.12c-1.28,0.74-2.69,1.11-4.23,1.11
					c-2.33,0-4.2-0.76-5.6-2.31c-1.38-1.59-2.07-3.51-2.07-5.83c0-2.43,0.65-4.45,1.97-6.01c1.29-1.56,3.16-2.31,5.65-2.31
					c2.39,0,4.21,0.75,5.42,2.31c1.25,1.54,1.86,3.52,1.86,5.93v0.46H516.96z M525.88,1058.91c-0.18-1.2-0.65-2.15-1.39-2.83
					c-0.75-0.7-1.73-1.05-2.91-1.05c-0.59,0-1.13,0.08-1.63,0.27c-0.5,0.2-0.95,0.48-1.33,0.82c-0.39,0.36-0.73,0.77-0.97,1.25
					c-0.26,0.49-0.43,0.99-0.52,1.55H525.88z"/>
				<path class="st1" d="M538.57,1056.56v2.47h-7.29v-2.47H538.57z"/>
				<path class="st1" d="M554.15,1065.98h-0.05c-0.63,0.95-1.4,1.67-2.33,2.18c-0.92,0.52-1.92,0.77-2.98,0.77
					c-2.33,0-4.14-0.8-5.47-2.41c-1.34-1.62-2-3.59-2-5.96c0-2.24,0.67-4.12,2.03-5.69c1.36-1.62,3.12-2.41,5.31-2.41
					c2.24,0,4.05,1,5.44,3.03h0.05v-15.82h3v28.73h-3V1065.98z M549.24,1066.28c1.59,0,2.83-0.54,3.71-1.61
					c0.9-1.11,1.37-2.45,1.37-4.01c0-1.55-0.46-2.86-1.37-3.95c-0.88-1.07-2.12-1.62-3.71-1.62c-1.48,0-2.68,0.55-3.59,1.67
					c-0.89,1.08-1.34,2.38-1.34,3.9c0,1.56,0.45,2.88,1.34,3.97C546.56,1065.74,547.76,1066.28,549.24,1066.28z"/>
				<path class="st1" d="M562.05,1054.83c1.62-1.58,3.61-2.37,5.94-2.37c2.33,0,4.31,0.79,5.9,2.37c1.63,1.59,2.44,3.55,2.44,5.87
					s-0.81,4.27-2.44,5.86c-1.58,1.59-3.57,2.37-5.9,2.37c-2.34,0-4.32-0.78-5.94-2.37c-1.59-1.59-2.39-3.54-2.39-5.86
					S560.46,1056.42,562.05,1054.83z M562.65,1060.7c0,1.43,0.53,2.7,1.58,3.81c1.02,1.06,2.28,1.58,3.77,1.58
					c1.45,0,2.72-0.53,3.76-1.58c1.05-1.1,1.58-2.37,1.58-3.81c0-1.46-0.52-2.73-1.58-3.81c-1.04-1.07-2.31-1.59-3.76-1.59
					c-1.49,0-2.75,0.52-3.77,1.59C563.18,1057.97,562.65,1059.24,562.65,1060.7z"/>
				<path class="st1" d="M584.4,1062.78l4.6-10.73l4.57,10.73l4.53-9.86h3.41l-7.94,16.02l-4.57-10.35l-4.6,10.35l-7.93-16.02h3.4
					L584.4,1062.78z"/>
				<path class="st1" d="M606.01,1054.99h0.06c0.44-0.83,1.1-1.44,1.95-1.88c0.83-0.45,1.77-0.65,2.76-0.65
					c1.03,0,1.89,0.14,2.6,0.45c0.71,0.3,1.29,0.74,1.71,1.32c0.46,0.58,0.76,1.27,0.95,2.1c0.19,0.82,0.27,1.78,0.27,2.82v9.24h-3
					v-8.87c0-1.53-0.21-2.64-0.66-3.34c-0.46-0.73-1.37-1.1-2.78-1.1c-0.51,0-0.94,0.05-1.31,0.15c-0.34,0.09-0.66,0.23-0.92,0.42
					c-0.27,0.19-0.5,0.41-0.67,0.65c-0.18,0.25-0.33,0.51-0.5,0.81c-0.05,0.14-0.12,0.35-0.17,0.59c-0.06,0.24-0.1,0.49-0.16,0.73
					c-0.03,0.26-0.07,0.51-0.1,0.77c-0.01,0.26-0.03,0.46-0.03,0.61v1.45v7.12h-3v-15.49h3V1054.99z"/>
				<path class="st1" d="M623.58,1068.4h-3v-28.73h3V1068.4z"/>
				<path class="st1" d="M628.85,1054.83c1.63-1.58,3.61-2.37,5.94-2.37c2.32,0,4.3,0.79,5.9,2.37c1.62,1.59,2.43,3.55,2.43,5.87
					s-0.81,4.27-2.43,5.86c-1.6,1.59-3.58,2.37-5.9,2.37c-2.33,0-4.31-0.78-5.94-2.37c-1.61-1.59-2.4-3.54-2.4-5.86
					S627.25,1056.42,628.85,1054.83z M629.46,1060.7c0,1.43,0.52,2.7,1.57,3.81c1.02,1.06,2.28,1.58,3.77,1.58
					c1.47,0,2.72-0.53,3.76-1.58c1.06-1.1,1.58-2.37,1.58-3.81c0-1.46-0.53-2.73-1.58-3.81c-1.04-1.07-2.28-1.59-3.76-1.59
					c-1.5,0-2.75,0.52-3.77,1.59C629.98,1057.97,629.46,1059.24,629.46,1060.7z"/>
				<path class="st1" d="M660.5,1068.4h-3v-2.42h-0.07c-1.33,1.98-3.1,2.95-5.3,2.95c-2.29,0-4.11-0.8-5.48-2.41
					c-1.33-1.62-1.98-3.59-1.98-5.96c0-2.24,0.68-4.12,2.02-5.69c1.36-1.62,3.14-2.41,5.33-2.41c2.23,0,4.04,1,5.41,3.03h0.07v-2.57
					h3V1068.4z M652.6,1066.28c1.57,0,2.81-0.54,3.71-1.61c0.9-1.11,1.35-2.45,1.35-4.01c0-1.55-0.45-2.86-1.35-3.95
					c-0.9-1.07-2.14-1.62-3.71-1.62c-1.49,0-2.7,0.55-3.6,1.67c-0.89,1.08-1.33,2.38-1.33,3.9c0,1.56,0.44,2.88,1.33,3.97
					C649.9,1065.74,651.11,1066.28,652.6,1066.28z"/>
				<path class="st1" d="M676.05,1065.98h-0.07c-0.62,0.95-1.4,1.67-2.32,2.18c-0.91,0.52-1.91,0.77-2.98,0.77
					c-2.32,0-4.13-0.8-5.47-2.41c-1.34-1.62-1.99-3.59-1.99-5.96c0-2.24,0.67-4.12,2.04-5.69c1.35-1.62,3.11-2.41,5.29-2.41
					c2.25,0,4.06,1,5.44,3.03h0.07v-15.82h3v28.73h-3V1065.98z M671.15,1066.28c1.58,0,2.81-0.54,3.7-1.61
					c0.92-1.11,1.36-2.45,1.36-4.01c0-1.55-0.45-2.86-1.36-3.95c-0.89-1.07-2.12-1.62-3.7-1.62c-1.5,0-2.69,0.55-3.61,1.67
					c-0.88,1.08-1.32,2.38-1.32,3.9c0,1.56,0.44,2.88,1.32,3.97C668.46,1065.74,669.65,1066.28,671.15,1066.28z"/>
				<path class="st1" d="M687.65,1067.02c0,0.53-0.18,0.99-0.56,1.36c-0.38,0.37-0.84,0.55-1.38,0.55c-0.52,0-1-0.19-1.37-0.55
					c-0.37-0.37-0.57-0.83-0.57-1.36c0-0.51,0.2-0.96,0.57-1.35c0.37-0.37,0.85-0.56,1.37-0.56c0.53,0,1,0.19,1.38,0.56
					C687.47,1066.05,687.65,1066.51,687.65,1067.02z"/>
				<path class="st1" d="M704.05,1057.32c-1.24-1.39-2.74-2.1-4.47-2.1c-1.45,0-2.67,0.56-3.69,1.64c-1,1.09-1.5,2.38-1.5,3.8
					c0,1.62,0.5,2.91,1.5,3.93c1.04,1.04,2.33,1.57,3.88,1.57c1.61,0,3.04-0.7,4.28-2.07v3.81c-1.29,0.69-2.72,1.02-4.29,1.02
					c-2.31,0-4.3-0.77-5.94-2.35c-1.63-1.55-2.43-3.47-2.43-5.79c0-2.38,0.81-4.36,2.43-5.96c1.62-1.58,3.65-2.37,6.1-2.37
					c1.61,0,2.99,0.33,4.14,1.02V1057.32z"/>
				<path class="st1" d="M708.3,1054.83c1.62-1.58,3.6-2.37,5.94-2.37c2.34,0,4.31,0.79,5.91,2.37c1.61,1.59,2.42,3.55,2.42,5.87
					s-0.8,4.27-2.42,5.86c-1.6,1.59-3.57,2.37-5.91,2.37c-2.33,0-4.31-0.78-5.94-2.37c-1.6-1.59-2.41-3.54-2.41-5.86
					S706.7,1056.42,708.3,1054.83z M708.9,1060.7c0,1.43,0.5,2.7,1.56,3.81c1.02,1.06,2.28,1.58,3.77,1.58
					c1.46,0,2.73-0.53,3.77-1.58c1.04-1.1,1.56-2.37,1.56-3.81c0-1.46-0.53-2.73-1.56-3.81c-1.04-1.07-2.31-1.59-3.77-1.59
					c-1.5,0-2.75,0.52-3.77,1.59C709.4,1057.97,708.9,1059.24,708.9,1060.7z"/>
				<path class="st1" d="M728.21,1054.87h0.08c0.43-0.72,1.02-1.29,1.78-1.76c0.74-0.43,1.53-0.65,2.35-0.65
					c1.95,0,3.45,0.9,4.5,2.73c0.48-0.83,1.16-1.5,2.02-2c0.84-0.5,1.79-0.73,2.78-0.73c3.46,0,5.17,2.22,5.17,6.68v9.26h-3v-8.77
					c0-0.39-0.02-0.8-0.05-1.18c-0.04-0.38-0.09-0.75-0.19-1.13c-0.09-0.35-0.22-0.68-0.41-1c-0.17-0.3-0.42-0.58-0.72-0.83
					c-0.4-0.26-0.91-0.39-1.53-0.39c-0.63,0-1.16,0.13-1.59,0.39c-0.43,0.25-0.76,0.57-0.99,0.92c-0.25,0.35-0.43,0.84-0.56,1.37
					c-0.12,0.54-0.21,1.05-0.25,1.5c-0.02,0.43-0.05,0.95-0.05,1.51v7.62h-3.01v-8.2c0-0.53,0-0.96-0.03-1.31
					c-0.02-0.37-0.09-0.8-0.2-1.35c-0.11-0.57-0.25-0.98-0.43-1.25c-0.18-0.3-0.45-0.58-0.83-0.83c-0.38-0.24-0.84-0.36-1.37-0.36
					c-1.54,0-2.52,0.67-2.96,1.99c-0.21,0.61-0.34,1.21-0.41,1.74c-0.06,0.56-0.09,1.21-0.09,1.96v7.62h-3v-15.49h3V1054.87z"/>
			</g>
			<g>
				<g>
					<path class="st1" d="M209.16,1059.27c14.16,0,28.32,0,42.48,0c1.29,0,1.29-1.99,0-1.99c-14.16,0-28.32,0-42.48,0
						C207.88,1057.29,207.88,1059.27,209.16,1059.27L209.16,1059.27z"/>
				</g>
				<g>
					<path class="st1" d="M774.36,1059.27c14.15,0,28.31,0,42.47,0c1.3,0,1.3-1.99,0-1.99c-14.15,0-28.32,0-42.47,0
						C773.08,1057.29,773.08,1059.27,774.36,1059.27L774.36,1059.27z"/>
				</g>
			</g>
		</g>
	</g>
	<rect y="1.5" class="st2" width="1024" height="1021"/>
</g>
<g id="Layer_2">
	<g>
		<g>
			<path class="st3" d="M186.02,669.4c0,3.56-1.26,6.61-3.79,9.13c-2.53,2.53-5.57,3.79-9.13,3.79c-3.56,0-6.61-1.26-9.13-3.79
				c-2.53-2.53-3.79-5.57-3.79-9.13v-44.49c0-3.56,1.26-6.61,3.79-9.13c2.53-2.53,5.57-3.79,9.13-3.79c3.56,0,6.61,1.26,9.13,3.79
				c2.53,2.53,3.79,5.57,3.79,9.13v5.01h-8.59v-5.01c0-1.21-0.42-2.22-1.26-3.05c-0.84-0.83-1.87-1.24-3.07-1.24
				c-1.21,0-2.22,0.41-3.05,1.24c-0.83,0.83-1.24,1.85-1.24,3.05v44.49c0,1.21,0.41,2.23,1.24,3.07c0.83,0.84,1.84,1.26,3.05,1.26
				c1.21,0,2.23-0.42,3.07-1.26c0.84-0.84,1.26-1.86,1.26-3.07v-5.01h8.59V669.4z"/>
			<path class="st3" d="M235.12,681.65h-8.59v-34.47h-8.63v34.47h-8.63v-68.94h8.63v25.84h8.63v-25.84h8.59V681.65z"/>
			<path class="st3" d="M289.44,681.65h-8.8l-1.35-8.63h-10.69l-1.39,8.63h-8.8l12.16-68.94h6.73L289.44,681.65z M269.95,664.39
				h8.04l-4.04-25.34L269.95,664.39z"/>
			<path class="st3" d="M340.18,681.65h-8.97l-8.63-30.18h-2.15v30.18h-8.63v-68.94h12.92c3.56,0,6.61,1.26,9.13,3.79
				s3.79,5.57,3.79,9.13v12.92c0,5.05-2.2,8.81-6.61,11.28L340.18,681.65z M329.07,638.55v-12.92c0-1.21-0.42-2.23-1.26-3.07
				c-0.84-0.84-1.87-1.26-3.07-1.26h-4.29v21.55h4.29c1.21,0,2.23-0.41,3.07-1.24C328.65,640.77,329.07,639.76,329.07,638.55z"/>
			<path class="st3" d="M388.4,621.29h-8.59v60.35h-8.63v-60.35h-8.63v-8.59h25.84V621.29z"/>
			<path class="st3" d="M477,681.65h-8.8l-1.35-8.63h-10.69l-1.39,8.63h-8.8l12.16-68.94h6.73L477,681.65z M457.51,664.39h8.04
				l-4.04-25.34L457.51,664.39z"/>
			<path class="st3" d="M525.22,669.4c0,3.56-1.26,6.61-3.79,9.13c-2.53,2.53-5.57,3.79-9.13,3.79c-3.56,0-6.61-1.26-9.13-3.79
				s-3.79-5.57-3.79-9.13V655.8H508v13.59c0,1.21,0.41,2.23,1.24,3.07c0.83,0.84,1.84,1.26,3.05,1.26c1.21,0,2.23-0.42,3.07-1.26
				c0.84-0.84,1.26-1.86,1.26-3.07v-11.28c0-1.37-0.52-2.47-1.56-3.28l-10.52-8c-3.45-2.67-5.18-6.12-5.18-10.35v-11.57
				c0-3.56,1.26-6.61,3.79-9.13c2.53-2.53,5.57-3.79,9.13-3.79c3.56,0,6.61,1.26,9.13,3.79c2.53,2.53,3.79,5.57,3.79,9.13v13.64
				h-8.59v-13.64c0-1.21-0.42-2.22-1.26-3.05c-0.84-0.83-1.87-1.24-3.07-1.24c-1.21,0-2.22,0.41-3.05,1.24
				c-0.83,0.83-1.24,1.85-1.24,3.05v11.57c0,1.43,0.57,2.58,1.73,3.45l10.52,8c3.31,2.53,4.97,5.92,4.97,10.18V669.4z"/>
			<path class="st3" d="M575.62,669.4c0,3.56-1.26,6.61-3.79,9.13c-2.53,2.53-5.57,3.79-9.13,3.79c-3.56,0-6.61-1.26-9.13-3.79
				s-3.79-5.57-3.79-9.13V655.8h8.63v13.59c0,1.21,0.41,2.23,1.24,3.07c0.83,0.84,1.84,1.26,3.05,1.26c1.21,0,2.23-0.42,3.07-1.26
				c0.84-0.84,1.26-1.86,1.26-3.07v-11.28c0-1.37-0.52-2.47-1.56-3.28l-10.52-8c-3.45-2.67-5.18-6.12-5.18-10.35v-11.57
				c0-3.56,1.26-6.61,3.79-9.13c2.53-2.53,5.57-3.79,9.13-3.79c3.56,0,6.61,1.26,9.13,3.79c2.53,2.53,3.79,5.57,3.79,9.13v13.64
				h-8.59v-13.64c0-1.21-0.42-2.22-1.26-3.05c-0.84-0.83-1.87-1.24-3.07-1.24c-1.21,0-2.22,0.41-3.05,1.24
				c-0.83,0.83-1.24,1.85-1.24,3.05v11.57c0,1.43,0.57,2.58,1.73,3.45l10.52,8c3.31,2.53,4.97,5.92,4.97,10.18V669.4z"/>
			<path class="st3" d="M628.63,681.65h-8.8l-1.35-8.63H607.8l-1.39,8.63h-8.8l12.16-68.94h6.73L628.63,681.65z M609.15,664.39h8.04
				l-4.04-25.34L609.15,664.39z"/>
			<path class="st3" d="M676.85,669.4c0,3.56-1.26,6.61-3.79,9.13c-2.53,2.53-5.57,3.79-9.13,3.79s-6.61-1.26-9.13-3.79
				s-3.79-5.57-3.79-9.13V655.8h8.63v13.59c0,1.21,0.41,2.23,1.24,3.07c0.83,0.84,1.84,1.26,3.05,1.26c1.21,0,2.23-0.42,3.07-1.26
				c0.84-0.84,1.26-1.86,1.26-3.07v-11.28c0-1.37-0.52-2.47-1.56-3.28l-10.52-8c-3.45-2.67-5.18-6.12-5.18-10.35v-11.57
				c0-3.56,1.26-6.61,3.79-9.13c2.53-2.53,5.57-3.79,9.13-3.79s6.61,1.26,9.13,3.79c2.53,2.53,3.79,5.57,3.79,9.13v13.64h-8.59
				v-13.64c0-1.21-0.42-2.22-1.26-3.05c-0.84-0.83-1.87-1.24-3.07-1.24c-1.21,0-2.22,0.41-3.05,1.24c-0.83,0.83-1.24,1.85-1.24,3.05
				v11.57c0,1.43,0.57,2.58,1.73,3.45l10.52,8c3.31,2.53,4.97,5.92,4.97,10.18V669.4z"/>
			<path class="st3" d="M727.25,669.4c0,3.56-1.26,6.61-3.79,9.13c-2.53,2.53-5.57,3.79-9.13,3.79s-6.61-1.26-9.13-3.79
				s-3.79-5.57-3.79-9.13V655.8h8.63v13.59c0,1.21,0.41,2.23,1.24,3.07c0.83,0.84,1.84,1.26,3.05,1.26c1.21,0,2.23-0.42,3.07-1.26
				c0.84-0.84,1.26-1.86,1.26-3.07v-11.28c0-1.37-0.52-2.47-1.56-3.28l-10.52-8c-3.45-2.67-5.18-6.12-5.18-10.35v-11.57
				c0-3.56,1.26-6.61,3.79-9.13c2.53-2.53,5.57-3.79,9.13-3.79s6.61,1.26,9.13,3.79c2.53,2.53,3.79,5.57,3.79,9.13v13.64h-8.59
				v-13.64c0-1.21-0.42-2.22-1.26-3.05c-0.84-0.83-1.87-1.24-3.07-1.24c-1.21,0-2.22,0.41-3.05,1.24c-0.83,0.83-1.24,1.85-1.24,3.05
				v11.57c0,1.43,0.57,2.58,1.73,3.45l10.52,8c3.31,2.53,4.97,5.92,4.97,10.18V669.4z"/>
			<path class="st3" d="M760.44,681.65h-8.63v-68.94h8.63V681.65z"/>
			<path class="st3" d="M812.11,681.65h-8.33l-0.04-17.93l-8.75-25.51l-0.08,43.43h-8.63v-68.94h7.41l10.27,30.77l-0.08-30.77h8.25
				V681.65z"/>
			<path class="st3" d="M863.82,669.4c0,3.56-1.26,6.61-3.79,9.13c-2.53,2.53-5.57,3.79-9.13,3.79s-6.61-1.26-9.13-3.79
				s-3.79-5.57-3.79-9.13V655.8h8.63v13.59c0,1.21,0.41,2.23,1.24,3.07c0.83,0.84,1.84,1.26,3.05,1.26c1.21,0,2.23-0.42,3.07-1.26
				c0.84-0.84,1.26-1.86,1.26-3.07v-11.28c0-1.37-0.52-2.47-1.56-3.28l-10.52-8c-3.45-2.67-5.18-6.12-5.18-10.35v-11.57
				c0-3.56,1.26-6.61,3.79-9.13c2.53-2.53,5.57-3.79,9.13-3.79s6.61,1.26,9.13,3.79c2.53,2.53,3.79,5.57,3.79,9.13v13.64h-8.59
				v-13.64c0-1.21-0.42-2.22-1.26-3.05c-0.84-0.83-1.87-1.24-3.07-1.24c-1.21,0-2.22,0.41-3.05,1.24c-0.83,0.83-1.24,1.85-1.24,3.05
				v11.57c0,1.43,0.57,2.58,1.73,3.45l10.52,8c3.31,2.53,4.97,5.92,4.97,10.18V669.4z"/>
		</g>
		<g>
			<path d="M280.65,736.03v-23.95h3.38l7.68,12.12c1.78,2.81,3.16,5.33,4.3,7.78l0.07-0.04c-0.28-3.2-0.36-6.11-0.36-9.84v-10.02
				h2.91v23.95h-3.13l-7.6-12.15c-1.67-2.67-3.27-5.4-4.48-8l-0.11,0.04c0.18,3.02,0.25,5.9,0.25,9.88v10.23H280.65z"/>
			<path d="M323.54,724.8h-9.31v8.64h10.38v2.59h-13.47v-23.95h12.93v2.59h-9.84v7.57h9.31V724.8z"/>
			<path d="M339.96,736.03l-6.08-23.95h3.27L340,724.2c0.71,2.98,1.35,5.97,1.78,8.28h0.07c0.39-2.38,1.14-5.22,1.95-8.31l3.2-12.08
				h3.23l2.91,12.15c0.68,2.84,1.31,5.68,1.67,8.21h0.07c0.5-2.63,1.17-5.29,1.92-8.28l3.16-12.08h3.16l-6.79,23.95h-3.23
				l-3.02-12.47c-0.75-3.06-1.24-5.4-1.56-7.82h-0.07c-0.43,2.38-0.96,4.73-1.85,7.82l-3.41,12.47H339.96z"/>
			<path d="M400.28,724.8h-9.31v8.64h10.38v2.59h-13.47v-23.95h12.93v2.59h-9.84v7.57h9.31V724.8z"/>
			<path d="M412.47,712.4c1.56-0.32,3.8-0.5,5.93-0.5c3.3,0,5.44,0.6,6.93,1.95c1.21,1.07,1.88,2.7,1.88,4.55
				c0,3.16-1.99,5.26-4.51,6.11v0.11c1.85,0.64,2.95,2.34,3.52,4.83c0.78,3.34,1.35,5.65,1.85,6.57h-3.2
				c-0.39-0.68-0.92-2.74-1.6-5.72c-0.71-3.3-1.99-4.55-4.8-4.66h-2.91v10.38h-3.09V712.4z M415.56,723.31h3.16
				c3.3,0,5.4-1.81,5.4-4.55c0-3.09-2.24-4.44-5.51-4.48c-1.49,0-2.56,0.14-3.06,0.29V723.31z"/>
			<path d="M438.7,712.4c1.56-0.32,3.8-0.5,5.93-0.5c3.3,0,5.44,0.6,6.93,1.95c1.21,1.07,1.88,2.7,1.88,4.55
				c0,3.16-1.99,5.26-4.51,6.11v0.11c1.85,0.64,2.95,2.34,3.52,4.83c0.78,3.34,1.35,5.65,1.85,6.57h-3.2
				c-0.39-0.68-0.92-2.74-1.6-5.72c-0.71-3.3-1.99-4.55-4.8-4.66h-2.91v10.38h-3.09V712.4z M441.79,723.31h3.16
				c3.3,0,5.4-1.81,5.4-4.55c0-3.09-2.24-4.44-5.51-4.48c-1.49,0-2.56,0.14-3.06,0.29V723.31z"/>
			<path d="M485.5,723.8c0,8.24-5.01,12.61-11.12,12.61c-6.32,0-10.77-4.9-10.77-12.15c0-7.6,4.73-12.58,11.12-12.58
				C481.27,711.69,485.5,716.7,485.5,723.8z M466.92,724.2c0,5.12,2.77,9.7,7.64,9.7c4.9,0,7.68-4.51,7.68-9.95
				c0-4.76-2.49-9.74-7.64-9.74C469.48,714.21,466.92,718.94,466.92,724.2z"/>
			<path d="M496.63,712.4c1.56-0.32,3.8-0.5,5.93-0.5c3.3,0,5.44,0.6,6.93,1.95c1.21,1.07,1.88,2.7,1.88,4.55
				c0,3.16-1.99,5.26-4.51,6.11v0.11c1.85,0.64,2.95,2.34,3.52,4.83c0.78,3.34,1.35,5.65,1.85,6.57h-3.2
				c-0.39-0.68-0.92-2.74-1.6-5.72c-0.71-3.3-1.99-4.55-4.8-4.66h-2.91v10.38h-3.09V712.4z M499.72,723.31h3.16
				c3.3,0,5.4-1.81,5.4-4.55c0-3.09-2.24-4.44-5.51-4.48c-1.49,0-2.56,0.14-3.06,0.29V723.31z"/>
			<path d="M557.97,723.8c0,8.24-5.01,12.61-11.12,12.61c-6.32,0-10.77-4.9-10.77-12.15c0-7.6,4.73-12.58,11.12-12.58
				C553.74,711.69,557.97,716.7,557.97,723.8z M539.39,724.2c0,5.12,2.77,9.7,7.64,9.7c4.9,0,7.68-4.51,7.68-9.95
				c0-4.76-2.49-9.74-7.64-9.74C541.94,714.21,539.39,718.94,539.39,724.2z"/>
			<path d="M569.1,712.08H582v2.59h-9.81v7.96h9.06v2.56h-9.06v10.84h-3.09V712.08z"/>
			<path d="M610.79,736.03l-6.08-23.95h3.27l2.84,12.12c0.71,2.98,1.35,5.97,1.78,8.28h0.07c0.39-2.38,1.14-5.22,1.95-8.31
				l3.2-12.08h3.23l2.91,12.15c0.68,2.84,1.31,5.68,1.67,8.21h0.07c0.5-2.63,1.17-5.29,1.92-8.28l3.16-12.08h3.16l-6.79,23.95h-3.23
				l-3.02-12.47c-0.75-3.06-1.24-5.4-1.56-7.82h-0.07c-0.43,2.38-0.96,4.73-1.85,7.82l-3.41,12.47H610.79z"/>
			<path d="M656.46,724.8h-9.31v8.64h10.38v2.59h-13.47v-23.95h12.93v2.59h-9.84v7.57h9.31V724.8z"/>
			<path d="M672.52,728.49l-2.49,7.53h-3.2l8.14-23.95h3.73l8.17,23.95h-3.3l-2.56-7.53H672.52z M680.38,726.08l-2.35-6.89
				c-0.53-1.56-0.89-2.98-1.24-4.37h-0.07c-0.35,1.42-0.75,2.88-1.21,4.34l-2.34,6.93H680.38z"/>
			<path d="M697.51,712.08h3.09v21.36h10.23v2.59h-13.33V712.08z"/>
			<path d="M722.81,714.71h-7.28v-2.63h17.73v2.63h-7.32v21.32h-3.13V714.71z"/>
			<path d="M746.13,712.08v10.02h11.58v-10.02h3.13v23.95h-3.13V724.8h-11.58v11.23h-3.09v-23.95H746.13z"/>
		</g>
		<g>
			<g>
				<path class="st3" d="M555.39,516.04c-8.83-6.2-16.76-13.72-23.43-22.2c-14.52-18.44-23.21-41.19-26.05-64.49
					c-3.41-27.96,10.42-49.15,28.25-69.43c4.43-5.04,9.1-9.99,12.13-15.97c1.42-2.81,2.41-5.92,2.79-9.05
					c-8.13-7.31-13.25-16.19-6.37-24.87c2.56-3.23,6.08-5.54,9.68-7.53c6.71-3.7,13.89-6.46,21.14-8.88
					c6.43-2.15,12.94-3.3,19.25-5.72c13.55-5.19,26.35-12.32,37.87-21.14c6.17-4.73,12.1-10.07,15.85-16.88
					c1.82,7.43,1.99,15.3,0.2,22.74c-0.85,3.55-2.14,6.99-3.51,10.37c-3.29,8.15-7.44,16.42-13.79,22.28
					c20.73,2.7,40.86,9.89,58.59,20.96c5.79-0.87,11.78-0.75,17.59,0.09c6.38,0.92,12.59,2.68,18.72,4.7
					c12.52-1.69,24.75-5.49,35.99-11.26c1.45-0.75,2.92-1.55,3.98-2.79c2.16-2.52,2.17-6.16,2.48-9.46
					c2.33-24.97,25.84-45.84,46.14-57.88c6.53-3.87,13.3-5.52,20.19-7.21c-9.33,10.44-17.69,21.63-22.47,34.94
					c-5.35,14.88-4.9,30.93-5.55,46.53c-0.43,10.41-1.71,22.46-8.03,31.17c-6.64,9.15-17.82,12.91-28.72,13.28
					c-7.08,0.24-14.18-0.19-21.19-1.24c2.46,3.45,6.23,6.26,9.78,8.72c5.52,3.82,11.06,7.62,16.56,11.47
					c7.18,5.02,17.92,12.1,12.91,22.36c-6.17,12.64-18.69,15.99-31.6,17.25c2.63,1.62,5.35,3.1,8.16,4.4
					c-8.38,6.58-17.97,11.77-28.35,14.19c-7.32,1.71-15.03,1.95-22.38,0.49c-3.61-0.71-18.85,15.33-22.04,18.2
					c-7.24,6.5-13.8,13.75-19.54,21.6c4.59-12.43,11.09-24.15,19.19-34.63c-16.95,11.91-34.07,26.85-44.91,44.76
					c-3.47,5.74-5.76,12.42-7.38,18.92c-0.43,1.72-1.56,20.79,1.31,20.24c-20.05,3.79-41.67-1.78-57.38-14.79
					c1.36,4.6,4.34,8.7,8.29,11.42C577.43,528.77,565.78,523.33,555.39,516.04z"/>
				<path class="st4" d="M666.27,410.29c11.48-6.02,25.3-4.41,38.14-2.65c-2.42-4.52-7.18-7.19-10.86-10.75
					c-4.41-4.27-7.35-10.02-8.22-16.09c5.86,1.57,11.5,3.92,16.74,6.97c-5.11-8.08-17.04-10.79-20.13-19.83
					c8.3,5.13,17.21,9.28,26.47,12.35c4.86,1.61,10.07,2.93,15.06,1.78c-0.06,0.01-6.47-8.24-7.22-9.01
					c-2.65-2.69-5.55-4.78-8.99-6.39c-7.15-3.36-15.16-4.47-22.9-5.59c-1.73-0.25-3.51-0.52-5.04-1.37
					c-3.84-2.13-4.95-7.05-5.66-11.39c2.97-1.58,6.52-2.04,9.8-1.28c-3.96-3.33-9.6-3.82-14.03-6.5c-5.4-3.28-8.36-9.44-10.03-15.53
					c6.08,3.55,13.03,5.26,19.86,6.93c5.48,1.34,10.97,2.68,16.45,4.02c-0.5-0.83-2.31-3.02-4.48-5.53
					c5.15-1.09,10.15-1.78,15.62-0.37c6.29,1.62,12.1,5.31,15.91,10.6c0.93,1.29,1.75,2.66,2.84,3.81c1.29,1.35,2.9,2.35,4.4,3.46
					c4.02,2.98,7.33,6.9,9.59,11.37c1.41,2.79,2.37,5.9,2.58,9.01c10.2,10.42,21.52,19.74,33.75,27.69c2.28,1.48,4.8,3.2,5.35,5.87
					c0.54,2.6-1.01,5.15-2.73,7.17c-8.79,10.35-22.58,14.3-36.06,17.09c3.16,2.12,6.59,3.84,10.2,5.02
					c-7.32,6.31-17.69,9.92-27.96,11.22c-2.07-5.34-5.46-10.18-9.88-13.84c-10.63-8.8-25.32-10.21-39.01-11.94
					c-2.06-0.26-4.17-0.55-6.02-1.5C667.99,414.12,666.42,412.37,666.27,410.29z"/>
				<path class="st5" d="M552.99,310.64c4.38-4.43,13.2-5.61,18.91-7.36c7.4-2.27,14.77-4.67,22.08-7.21
					c17.51-6.06,35.57-13.43,47.33-27.76c-1.29,17.57-11.04,34.33-25.68,44.13c-4.08,2.74-8.53,4.97-12.25,8.18
					c-3.65,3.16-7.71,7.59-6.88,12.7c5.19-3.74,10-8,15.4-11.44c0.78-0.5,1.59-0.97,2.4-1.43c14.44,8.26,29.55,11.75,45.73,15.83
					c0.6,0.15,1.24,0.33,1.63,0.81c0.32,0.4,0.41,0.94,0.47,1.45c1,8.49-1.24,17.32-6.16,24.32c-0.44,0.62-0.93,1.26-1.63,1.55
					c-0.61,0.26-1.3,0.22-1.96,0.18c-18.19-1.15-37.28-4.65-54.64-10.41c-14.28-4.74-27.96-11.77-39.09-21.89
					c-3.1-2.82-6.06-5.98-7.52-9.91C549.69,318.46,550.05,313.62,552.99,310.64z"/>
				<path class="st4" d="M558.04,486.51c-17.54-24.89-18.4-59.12-5.06-88.4c-19.01,20.11-19.42,47.59-13.09,71.16
					c-0.67-2.49-5.72-5.9-7.38-8.23c-2.03-2.85-4.26-5.71-6.29-8.62c-4.65-6.69-8.02-14.12-9.53-22.02
					c-4.65-24.26,11.13-46.35,30.16-65.63c5.34-5.41,11.92-10.17,17.39-15.53c3.76,1.8,7.3,3.21,9.86,4.15
					c8.04,2.94,16.97,5.97,25.6,7.65c2.67,0.52,5.37,0.95,8.09,1.34c-10.6,4.21-22.26,6.05-33.26,5.02
					c4.13,3.19,8.82,5.85,13.88,7.98c-21.33,19.23-33.26,45.73-31.09,70.4c4.18-21.84,16.56-43.27,34.85-60.32
					c2.04-1.9,4.19-3.77,6.46-5.5c3.85,2.43,7.96,4.59,12.3,6.41c-19.49,18.7-32.83,41.86-37.54,65.52
					c1.72-4.36,3.87-8.62,6.15-12.84c4.77-8.8,10.4-17.67,19.16-24.1c3.26-2.4,6.86-4.37,10.62-6.11
					c-10.44,14.48-18.61,30.03-21.3,46.15c-2.29,13.78-0.51,27.36,3.09,40.44c2.69-13.52,8.59-26.83,17.12-39.03
					c12.9-18.46,30.29-35.14,52.95-42.89c-29.4,23.64-50.12,56.88-51.04,89.25c-0.19,6.56,0.28,13.07,1.28,19.47
					c-18.83-5.85-35.52-15.22-47.8-28.79C561.59,491.23,559.74,488.91,558.04,486.51z"/>
				<path class="st5" d="M766.99,322.35c-1.36,5.47-1.65,11.14-1.44,16.86c2.56-9.02,5.4-17.96,8.69-26.74
					c7.01-18.7,14.6-38.06,31.79-49.79c2.67-1.82,5.6-3.33,8.66-4.37c-9.64,10.28-14.16,24.01-16.04,37.93
					c-1.07,7.95-1.39,15.97-1.6,23.98c-0.21,8.29,0.93,17.52-2.88,25.18c-7.36,14.81-26.39,16.98-40.92,16.37
					c-1.75-0.07-3.49-0.26-5.24-0.39c-1.47-3.57-3.55-6.89-6.17-9.74c-1.71-1.86-3.63-3.52-5.35-5.37c-3.47-3.74-6-8.2-8.25-12.8
					C741.49,331.07,754.49,327.34,766.99,322.35z"/>
				<path class="st3" d="M759.78,415.92c-3.84,1.02-7.88,1.27-11.82,0.74c-1.33-0.18-2.67-0.46-3.82-1.15
					c-1.82-1.1-2.9-3.09-3.79-5.02c-2.03-4.43-3.51-9.12-4.45-13.9C741.26,405.76,749.04,413.91,759.78,415.92z"/>
				<path class="st6" d="M695.76,365.78c3.7,8.53,12.85,14.4,22.16,14.19c0.35-0.11-3.15-4.88-3.51-5.25
					c-1.57-1.62-3.41-2.97-5.35-4.1c-4.12-2.4-8.86-3.52-13.36-5C695.71,365.68,695.74,365.73,695.76,365.78z"/>
			</g>
			<g>
				<path class="st3" d="M268.22,364.9c1.6-2.16,4.02-3.84,4.78-6.42c0.24-0.82,0.3-1.7,0.67-2.47c0.38-0.78,1.04-1.37,1.59-2.03
					c2.02-2.43,2.55-5.72,3.71-8.66c1.16-2.94,3.56-5.92,6.72-5.8c0.87,0.03,1.73,0.31,2.6,0.27c3.08-0.14,5.15-4.04,8.23-3.83
					c1.44,0.1,2.73,1.12,4.16,1.03c1.81-0.11,3.01-1.85,4.52-2.86c2.35-1.57,5.41-1.33,8.23-1.55c4.97-0.39,8.3-2.67,12.5-4.94
					c4.19-2.26,9.6-2.96,14.28-2.52c2.06,0.19,4.1,0.61,6.17,0.59c5.21-0.06,9.91-2.91,14.61-5.16c7.8-3.74,16.3-5.94,24.92-6.61
					c9.99-0.77,20.36,0.41,29.78,3.89c1.93,0.71,3.9,1.47,5.66,2.52c1.75,1.04,3.68,2.21,5.78,2.23c6.84,0.09,13.79-5.6,16.29-11.67
					c0.26,1.82,0.51,3.64,0.77,5.46c0.8-3.34,2.23-6.62,4.63-9.07c2.94-3,7.12-4.52,11.28-5.02c4.17-0.49,8.38-0.04,12.56,0.42
					c0.26,1.93-0.26,3.94-1.41,5.51c7.68-1.53,15.49,1.46,22.52,4.91c0.55,0.27,1.12,0.56,1.52,1.03c0.53,0.63,0.67,1.5,0.77,2.32
					c0.71,5.74,0.58,11.59-0.39,17.29c2.51,0.12,5.04-0.27,7.4-1.14c-5.51,9.66-11.49,19.05-17.89,28.15
					c4.19,8.2,8.39,16.4,12.58,24.6c3.79,7.42,7.66,15.26,8.73,23.38c-2-2.57-4.35-4.88-6.97-6.81c5.57,16.29,4.97,34.16,1.47,51.02
					c-1.03,4.95-2.33,9.92-4.53,14.44c0.15-2.85,0.09-5.72-0.18-8.56c-1.9,4.43-4.55,8.56-7.58,12.33
					c-4.73,5.87-10.36,10.94-15.97,15.98c-6.99,6.29-13.98,12.57-20.97,18.86c2.18-3.84,3.72-8.04,4.56-12.37
					c-9.89,10.42-24.12,16.58-34.5,26.8c-0.65-2.18-0.45-4.6,0.54-6.65c-6.96,0.9-13.64,3.94-18.89,8.6c-0.16-2.99,0.57-6,2-8.63
					c-12.77,2.06-24.91,7.99-34.33,16.87c-0.11-2.16-0.01-4.33,0.25-6.49c-4.18,2.47-7.84,5.83-10.59,9.85
					c-0.54-2.65-0.53-5.42,0.02-8.07c-2.48,1-4.53,3.02-5.56,5.48c-3.38-5.02-7.26-9.7-11.56-13.96c-0.01,1.8-0.02,3.61-0.04,5.41
					c-2.12-1.18-3.93-2.91-5.2-4.97c-1.47-2.37-2.85-5.58-5.63-5.6c-1.15-0.01-2.2,0.58-3.25,1.03c-5.21,2.23-11.62,0.94-15.86-2.81
					c-4.24-3.75-6.3-9.69-5.74-15.33c0.14-1.44,0.45-2.87,0.35-4.32c-0.21-3.08-3.2-6.05-4.65-8.68c-1.72-3.12-3.08-6.44-4.02-9.88
					c-0.49,2.4-1.3,4.74-2.41,6.93c-1.7-4.43-4.81-8.14-7.4-12.11c-6.82-10.44-10.17-23.1-9.4-35.54c-2.37,0.34-4.64,1.31-6.54,2.76
					c-1.52-4.87-1.11-10.7-0.77-15.56c0.46-6.53,1.76-12.99,3.88-19.18c0.47-1.37,0.99-2.83,0.66-4.24
					c-0.58-2.49-3.23-5.48-4.85-7.4c-2.45-2.91-4.71-6.01-5.98-9.63C265.3,373.89,265.45,368.66,268.22,364.9z"/>
				<path class="st7" d="M274.9,362.99c1.05-0.77,2.33-1.21,3.66-1.46c1.3-0.25,2.66-0.33,3.89-0.38c2.43-0.1,4.88-0.18,7.31-0.13
					c-3.59-0.73-7.25-1.17-10.91-1.26c0.32-1.17,0.88-2.28,1.68-3.19c1.12,0.87,2.28,1.75,3.65,2.08c1.37,0.34,3.01-0.01,3.79-1.19
					c4.21,3.31,9.71,4.38,14.97,5.34c1,0.18,2.02,0.37,3.03,0.22c1.05-0.15,2.04-0.66,3.1-0.7c1.37-0.06,2.96,0.58,3.98-0.33
					c0.37-0.34,0.57-0.82,0.79-1.27c1.2-2.44,3.88-4.42,6.53-3.79c1.35-2.55,1.39-5.76,0.1-8.34c-0.17-0.33-0.36-0.69-0.3-1.06
					c0.05-0.29,0.24-0.54,0.45-0.76c0.85-0.94,1.87-1.72,3-2.29c-2.2,0.46-4.51,0.92-6.65,0.24c-1.12-0.36-2.12-1-3.13-1.59
					c-2.37-1.38-4.9-2.49-7.52-3.3c2.04-1.39,4.24-2.46,6.69-2.71c1.89-0.19,3.93,0.09,5.58-0.86c-0.38,0.93-0.73,1.86-1.05,2.81
					c0.97-0.54,1.88-1.23,2.76-1.92c3.6-2.8,6.25-4.96,10.84-5.8c4.06-0.74,8.28-0.63,12.3,0.29c0.66,0.15,1.34,0.31,2.01,0.24
					c0.67-0.07,1.28-0.38,1.88-0.67c13.12-6.4,27.24-11.44,41.87-12.69c5.17-0.44,10.33,0.43,15.29,1.84
					c4.14,1.18,8.26,2.49,12.25,4.11c2.85,1.17,5.69,2.44,8.72,3.09c3.2,0.68,6.02,0.11,8.88-1.46c1.84-1.01,3.74-2.06,5.32-3.42
					c0.15,1.21,0.11,2.45-0.12,3.64c2-1.04,3.74-1.76,5.22-3.55c1.78-2.15,2.7-4.88,4.19-7.25c3.55-5.64,10.63-8.74,17.2-7.83
					c0.24,1.9,0.17,3.84-0.24,5.71c4.28-2.15,9.17-2.13,13.77-1.25c2.36,0.45,4.84,1.05,7.08,1.94c2.11,0.84,3.56,2.29,5.98,2.42
					c0.63,3.67,1.26,7.4,0.89,11.11c-0.38,3.71-1.9,7.46-4.86,9.72c1.94-0.39,3.88-0.78,5.82-1.16
					c-3.12,8.23-8.27,15.69-14.85,21.54c-0.74,0.65-1.52,1.3-2.47,1.56c-1,0.27-2.05,0.07-3.07-0.06
					c-5.58-0.75-11.4,0.33-16.34,3.04c4.89-0.77,9.93-0.59,14.76,0.53c0.64,0.15,1.29,0.32,1.83,0.7c0.61,0.43,1.01,1.09,1.39,1.73
					c8.24,14.08,11.72,30.88,9.83,47.07c-1.93-3.52-4.64-6.6-7.93-8.9c1.71,11.23,0.48,23.32-3.12,34.43
					c-1.43-5.01-3.97-9.7-7.43-13.59c0.57,0.64,0.25,3.39,0.24,4.23c-0.03,1.65-0.19,3.29-0.46,4.92c-0.46,2.73-1.05,5.38-2.33,7.84
					c-1.77,3.4-4.33,6.27-7.07,8.94c0.29-2.21,0.1-4.48-0.58-6.59c0.7,2.17-2.11,6.88-3.2,8.63c-1.73,2.79-4.03,5.22-6.74,7.07
					c-4.87,3.34-10.24,5.78-16.06,6.07c9.43-10.65,13.93-24.54,14.77-38.94c0.3-5.05,0.1-10.13-0.6-15.14
					c-0.65-4.68-1.65-9.29-2.93-13.82c-0.79,9.9-2.45,19.47-6.77,28.19c-0.28-8.4-1.86-16.72-4.94-24.58
					c0.11,4.72-0.73,9.47-2.44,13.87c-1.8-14.6-11.02-28.1-23.96-35.09c0.72,1.1,1.43,2.21,2.12,3.34
					c5.7,9.35,10.11,19.62,11.85,30.48c0.83,5.19,1.46,10.69,1.3,15.97c-0.08,2.86-0.39,5.71-0.92,8.51c-0.27,1.46-0.61,2.91-1,4.34
					c-0.28,1.02-1.15,2.57-1.12,3.6c-0.15-5.18-0.84-10.34-2.05-15.38c-3.08,10.96-6.51,22.24-13.07,31.52
					c1.24-1.75,1.32-4.05,1.24-6.19c-0.14-3.49-0.6-6.97-1.37-10.38c0.06,2.56-1.07,4.99-2.28,7.25c-2.4,4.45-5.73,8.49-9.52,11.97
					c1.27-5.41,2.1-10.93,2.29-16.48c0.15-4.35-0.11-8.72-0.88-13c-0.69-3.81-2.25-7.56-4.25-11.04c-0.12,5.46-1.34,10.77-3.9,15.9
					c0.07-7.34-3.3-14.22-5.12-21.33c-1.26,6.58,0.13,13.58-2.02,19.92c-0.9,2.67-2.37,5.05-4.13,7.24c1.17-5.36,1.06-11-0.4-16.29
					c0.14,0.5-1.04,2.37-1.25,2.9c-0.49,1.19-0.94,2.4-1.37,3.61c-0.82,2.32-1.55,4.67-2.23,7.04c-1.31,4.58-2.81,9.1-3.75,13.78
					c-1.02,5.09-1.92,10.23-2.1,15.43c-0.16,4.62-0.15,9.07,0.3,13.71c2.97-1.32,5.39-3.66,6.82-6.56
					c-0.04,3.75-0.37,7.65-2.21,10.92c-1.48,2.63-2.39,5.16-4.88,7.12c2.91,0.02,5.81-0.8,8.28-2.34
					c-5.27,8.36-17.89,12.6-27.2,9.49c-0.95-0.32-1.91-0.72-2.9-0.63c-0.98,0.08-1.84,0.62-2.69,1.12
					c-3.39,1.97-7.2,3.36-11.13,3.41c-3.92,0.05-7.96-1.38-10.56-4.31c-2.6-2.93-3.5-7.45-1.7-10.94c0.12-0.23,0.28-0.49,0.54-0.53
					c0.52-0.09,0.72,0.64,0.74,1.17c0.06,2.26,0.61,5.4,2.1,7.21c1.07,1.3,2.95,1.76,4.62,1.9c3.68,0.3,7.82-1.16,10.42-3.8
					c0.54-0.54,1.06-1.1,1.56-1.67c7.31-8.3,10.15-19.8,12.71-30.32c2.67-10.99,4.48-22.16,6.85-33.21
					c2.13-9.95,4.11-21.18,0.22-30.96c-3.34-8.4-12.13-13.75-19.12-18.88c-6.12-4.49-12.53-8.67-19.51-11.72
					c-7.02-3.07-14.26-6.41-22.11-6.26c-3.22,0.06-6.71,0.83-8.76,3.32c-2.36,2.86-2.05,7.18-0.43,10.51
					c0.43,0.89,0.97,1.83,0.8,2.8c-0.07,0.44-0.29,0.84-0.47,1.25c-0.91,2.09-0.94,4.54-0.08,6.65c-4.02-4-7.64-8.4-10.79-13.12
					c-1.08-1.61-2.13-3.38-2.14-5.32C269.46,369.02,272.08,365.05,274.9,362.99z"/>
				<path class="st8" d="M460.42,333.88c2.43-2.9,4.21-6.39,7.13-8.8c2.77-2.29,6.38-3.42,9.98-3.61c3.59-0.19,7.18,0.51,10.63,1.55
					c-3.71,1.49-4.87,6.2-4.78,10.2c0.09,4,0.87,8.25-0.92,11.83c-0.95,1.91-2.55,3.42-4.24,4.72c-4.81,3.69-11.07,6.01-16.98,4.64
					c1.99-0.5,3.55-2.37,3.68-4.42c-3.92,2.59-8.87,3.55-13.48,2.63c2.34-1,4-3.39,4.13-5.93c-2.74,2.86-6.56,4.66-10.51,4.97
					c1.01-0.96,1.68-2.27,1.86-3.65c-4.53,0.65-9.18,0.52-13.67-0.37c1.19,0.24,5.89-3.19,7.22-3.76c2.56-1.1,5.21-2,7.91-2.7
					C453.35,339.9,457,337.96,460.42,333.88z"/>
				<path class="st3" d="M334.21,344.53c5.9,1.75,11.51,4.47,16.51,8.06c2.96-2.46,6.6-4.1,10.4-4.69c-1.5,0.69-2.64,2.11-3.01,3.72
					c6.79-3.01,14.67-3.49,21.78-1.35c-1.92-0.16-3.89,0.65-5.13,2.12c5.96,3.52,10.94,8.66,14.26,14.73
					c-2.72-1.49-5.95-2.04-9.01-1.52c1.95,1.81,3.16,4.39,3.32,7.04c-0.08-1.33-3.9-3.35-4.95-3.79c-1.68-0.71-3.89-1.23-5.43,0.07
					c-1.01,0.85-1.52,2.18-1.63,3.5c-0.11,1.32,0.14,2.63,0.42,3.92c-0.95-1.67-2.34-3.08-3.99-4.05c0.44,2.4,0.14,4.92-0.8,7.18
					C358.87,365.56,347.58,353.51,334.21,344.53z"/>
				<path class="st8" d="M374.35,395.23c-2.69-2.11-5.42-4.17-8.2-6.16c3.08,5.23,4.98,11,6.04,16.96
					c-5.34-10.57-13.31-19.77-22.13-27.82c-6.96-6.36-14.51-12.09-22.51-17.12c10.02,3.57,20.35,8.45,28.38,15.06
					C362.78,381.77,368.88,388.27,374.35,395.23z"/>
				<path class="st8" d="M346.63,486.82c1.49-5.73,1.61-12.02,2.16-17.89c0.59-6.27,1.16-12.54,2.09-18.76
					c0.8-5.42,1.87-10.82,3.45-16.07c1.44-4.82,3.49-9.34,4.46-14.29c0.96-4.91,0.08-9.98-0.8-14.91
					c3.32,4.76,4.65,10.69,4.73,16.49c0.04,3.42-0.33,6.81-0.88,10.19c-0.28-2.09-0.71-4.16-1.32-6.18c-0.16,2.2-0.95,4.31-1.7,6.39
					c-6.33,17.76-10.5,37.88-9.16,57c2.45-2.36,4.24-5.4,5.03-8.71c-0.42,2.85-1.54,5.56-2.8,8.14c-0.58,1.19-1.25,2.27-2.01,3.27
					c-2.31,3.02-5.4,5.19-9.1,6.7c-0.73,0.3-1.49,0.57-2.25,0.82C342.32,495.62,345.43,491.46,346.63,486.82z"/>
				<path class="st8" d="M289.14,377.77c0.7-1.44,1.55-2.8,2.53-4.07c1.74-2.26,3.62-4.7,6.71-4.64c3.45,0.06,7,1.62,10.17,2.86
					c3.22,1.25,6.37,2.69,9.39,4.37c3.11,1.73,6.08,3.73,8.82,6.02c-1.18,0.09-2.32,0.38-3.39,0.98c-0.95-1.3-1.99-2.62-3.42-3.36
					c-1.43-0.74-3.38-0.75-4.5,0.42c-0.82-0.81-2.37-0.65-3,0.3c-1.66-1.94-5.26-1.58-6.51,0.65c-1.17-0.76-2.38-1.52-3.76-1.75
					c-1.37-0.23-2.95,0.2-3.68,1.39c-1.78-1.86-5.39-1.26-6.47,1.08c-1.26-0.94-3.11-1-4.43-0.15
					C288.16,381.48,288.78,378.5,289.14,377.77z"/>
				<path class="st9" d="M321.84,384.75c0.23,0.3,0.44,0.64,0.46,1.02c0.03,0.48-0.24,0.91-0.48,1.32
					c-2.87,4.75-4.83,10.69-4.94,16.25c0,0.18-0.01,0.37-0.09,0.54c-1.04,2.11-4.07-4.35-4.29-5.03c-0.85-2.62-0.84-5.31-1.3-7.99
					c-0.15-0.89-0.83-1.84-1.73-1.73c-0.07,0.75-0.97,1.29-1.67,0.99c-0.42-0.18-0.84-0.6-1.25-0.39c-0.2,0.1-0.3,0.34-0.46,0.5
					c-0.85,0.85-2.27-0.75-3.41-0.36c-0.44,0.15-0.73,0.58-1.14,0.82c-0.7,0.4-1.59,0.15-2.32-0.22c-0.72-0.36-1.44-0.84-2.25-0.86
					c-0.89-0.02-1.69,0.51-2.51,0.84s-1.94,0.38-2.45-0.35c-0.24-0.34-0.3-0.8-0.61-1.07c-2.02-1.82-1.9,4.74-1.94,5.46
					c-0.19,2.75-0.75,5.43-1.28,8.13c-0.12,0.59-0.38,1.32-0.98,1.35c-0.45,0.02-0.79-0.38-1.03-0.76
					c-2.71-4.27-3.22-10.73-2.56-15.63c0.13-0.95,0.32-1.91,0.83-2.72c1.12-1.79,3.82-2.33,5.55-1.12c0.41,0.29,0.77,0.66,1.23,0.87
					s1.08,0.19,1.39-0.2c0.14-0.19,0.2-0.43,0.32-0.62c0.47-0.76,1.62-0.6,2.43-0.22s1.68,0.92,2.52,0.63
					c0.48-0.17,0.83-0.58,1.23-0.9c1.33-1.05,3.45-0.93,4.65,0.27c0.41,0.41,0.91,0.98,1.44,0.76c0.22-0.09,0.37-0.3,0.53-0.47
					c0.71-0.78,1.91-1.07,2.9-0.68c1.07,0.42,2.01,1.56,3.11,1.24c0.34-0.1,0.62-0.32,0.91-0.52
					C315.36,382.07,319.74,382.01,321.84,384.75z"/>
				<path class="st9" d="M336.77,389.73c0.33,0.26,0.68,0.55,0.78,0.96c0.16,0.7-0.52,1.32-1.2,1.56c-1.47,0.53-3.24,0.02-4.2-1.21
					c-0.28-0.36-0.75-0.82-1.1-0.52c-0.11,0.09-0.15,0.24-0.22,0.36c-0.39,0.76-1.46,0.86-2.28,0.62c-1.94-0.56-3.33-2.39-3.75-4.36
					c-0.09-0.41-0.14-0.86,0.01-1.26c0.09-0.25,0.26-0.48,0.46-0.66c0.77-0.7,1.93-0.83,2.94-0.58c1.51,0.38,2.92,1.46,4.26,2.22
					C333.97,387.73,335.41,388.68,336.77,389.73z"/>
				<path class="st8" d="M284.35,403.58c0.42,3.92,3.35,7.04,6.13,9.84c-0.28-2.4-0.03-4.85,0.7-7.15
					c10.7,16.61,17.85,35.49,20.91,55.01c-4.28-8.81-9.43-17.19-15.37-24.96c-1.86,5.35-2.5,11.11-1.94,16.75
					c-3-7.1-5.13-14.57-6.32-22.19c-0.5-3.25-0.83-6.59-0.1-9.8c-1.94,0.73-3.66,2.05-4.86,3.75
					C282.49,417.78,282.78,410.54,284.35,403.58z"/>
				<path class="st8" d="M324.19,477.12c1.44-1.9,3.4-3.41,4.61-5.46c2.21-3.74,1.55-8.46,0.73-12.73
					c-1.15-5.99-2.48-11.99-2.65-18.09c-0.1-3.46,0.22-7.06,1.94-10.07c1.72-3,5.14-5.25,8.56-4.7c-2.6,2.48-3.08,7.92-3.51,11.32
					c-0.57,4.54,0.17,9.24,1.43,13.83c-0.1-4.91,0.13-9.87,1.21-14.47c0.83-3.56,2.15-7.05,4.2-10.09c2.1-3.12,4.17-4.4,8.03-4.58
					c0.63-0.03,1.4,0.06,1.68,0.62c0.17,0.32,0.12,0.71,0.07,1.07c-0.27,1.85-0.53,3.71-0.8,5.56c-1.4,9.8-4.05,19.45-5.77,29.25
					c-1.3,7.44-2.41,15.23-6.69,21.46c-0.65-1.6-1.64-3.07-2.89-4.27c-0.56-0.54-1.27-1.06-2.04-0.98c-1.08,0.11-1.7,1.28-1.97,2.34
					c-0.27,1.05-0.38,2.14-0.33,3.22c0.03,0.72,0.13,1.47-0.12,2.15c-0.53,1.43-2.28,1.9-3.78,2.16c-0.82,0.15-1.73,0.27-2.41-0.2
					c-0.25-0.18-0.45-0.43-0.61-0.69C321.85,481.72,322.74,479.02,324.19,477.12z"/>
				<path class="st9" d="M333.37,478.27c-0.15-0.23-0.35-0.48-0.62-0.5c-0.51-0.05-0.73,0.62-0.77,1.13
					c-0.16,1.92-0.32,3.84-0.48,5.76c-0.05,0.62-0.11,1.27-0.43,1.8s-0.99,0.91-1.57,0.7c-0.63-0.23-1.01-1.06-1.68-1.01
					c-0.83,0.06-0.97,1.33-1.73,1.67c-0.75,0.34-1.5-0.42-2.05-1.04c-0.55-0.61-1.6-1.13-2.1-0.48c-0.42,0.56-0.25,1.5-1.21,1.57
					c-0.84,0.06-1.07-1.04-1.74-1.29c-0.97-0.36-1.67,0.63-2.81-0.08c-0.97-0.61-1.56-1.66-2.1-2.66c-0.99-1.81-1.98-3.62-2.97-5.43
					c-0.19-0.35-0.49-0.76-0.88-0.7c-0.81,0.12-0.12,3.99-0.03,4.52c0.34,1.91,0.42,3.76,1.02,5.64c0.27,0.84,0.61,1.7,1.23,2.33
					c0.62,0.64,1.57,1.02,2.42,0.74c0.67-0.22,1.29-0.84,1.98-0.66c0.53,0.14,0.81,0.68,1.1,1.14c1.01,1.58,1.44,0.02,2.53,0.15
					c0.88,0.1,1.03,1.16,2.17,0.94c0.97-0.18,2.39-2.01,3.38-1.29c0.49,0.35,0.36,1.23,0.88,1.53c0.56,0.33,1.18-0.31,1.51-0.86
					c0.33-0.55,0.94-1.2,1.5-0.88c0.21,0.12,0.33,0.35,0.47,0.55c0.55,0.79,1.51,1.28,2.47,1.25c3-0.09,3.08-4,3.05-6.22
					C335.86,483.64,334.99,480.72,333.37,478.27z"/>
				<ellipse class="st9" cx="359.89" cy="358.54" rx="4.42" ry="3.73"/>
				<path class="st8" d="M312.97,345.45c1.6,0.95,3.26,2.11,3.87,3.87c0.71,2.02-0.37,4.5-2.32,5.37c-0.96,0.42-2.04,0.49-3,0.91
					c-1.26,0.55-2.18,1.64-3.26,2.48c-2.49,1.93-5.87,2.45-8.97,1.94c-3.11-0.51-5.98-1.98-8.61-3.71c-0.86-0.56-1.89-1.18-2.84-0.8
					c-0.55,0.22-0.92,0.74-1.39,1.11c-1.29,1.02-3.43,0.69-4.36-0.67c-0.67-0.98-0.7-2.29-0.36-3.43c0.34-1.14,1.01-2.15,1.66-3.14
					c0.82-1.24,1.64-2.47,2.46-3.71c0.6-0.91,1.27-1.86,2.28-2.25c1.02-0.39,2.44,0.16,2.51,1.24c-0.09-1.27,3.48-3.22,4.41-3.64
					c1.69-0.77,3.92-1.36,5.78-0.95C304.98,340.96,309.35,343.31,312.97,345.45z"/>
				<path class="st3" d="M311.82,349.32c-0.89-0.45-2.01-0.02-2.7,0.69c-0.69,0.71-1.09,1.66-1.57,2.53
					c-0.48,0.87-1.12,1.74-2.06,2.06c-1.02,0.35-2.15,0-3.1-0.5c-1.33-0.69-2.54-1.7-3.2-3.04c-1.32-2.65,0.56-6.5,3.74-6.47
					C306.18,344.62,309.11,347.95,311.82,349.32z"/>
				<path class="st8" d="M360.54,446.87c0.61-5.42,1.66-10.79,3.05-16.07c1.24-4.72,3.12-8.83,4.86-13.27
					c1.17,2.39,2.35,4.78,3.52,7.16c0.77-7.23-0.61-14.67-3.94-21.13c6.42,4.46,12.37,10.29,14.57,17.79
					c2.32-7.67,3.16-15.79,2.47-23.78c8.12,9.26,14.37,20.16,18.28,31.83c2.64-23.61-1.83-48.04-13.03-69.02
					c15.89,8.31,30.12,19.76,41.67,33.47c0.86-10.2,1.13-20.53-0.85-30.3c14.95,20.76,23,46.43,22.7,72.01
					c7.18-8.99,10.55-20.13,10.97-31.92c2.67,3.72,4.25,8.21,4.49,12.78c4.51-18.02,3-37.47-4.16-54.6
					c2.52,0.08,5.02,0.41,7.48,0.98c0.64,0.15,1.29,0.32,1.83,0.7c0.61,0.43,1.01,1.09,1.39,1.73c8.24,14.08,11.72,30.88,9.83,47.07
					c-1.93-3.52-4.64-6.6-7.93-8.9c1.71,11.23,0.48,23.32-3.12,34.43c-1.43-5.01-3.97-9.7-7.43-13.59c0.57,0.64,0.25,3.39,0.24,4.23
					c-0.03,1.65-0.19,3.29-0.46,4.92c-0.46,2.73-1.05,5.38-2.33,7.84c-1.77,3.4-4.33,6.27-7.07,8.94c0.29-2.21,0.1-4.48-0.58-6.59
					c0.7,2.17-2.11,6.88-3.2,8.63c-1.73,2.79-4.03,5.22-6.74,7.07c-4.87,3.34-10.24,5.78-16.06,6.07
					c9.43-10.65,13.93-24.54,14.77-38.94c0.3-5.05,0.1-10.13-0.6-15.14c-0.65-4.68-1.65-9.29-2.93-13.82
					c-0.79,9.9-2.45,19.47-6.77,28.19c-0.26-7.81-1.66-15.54-4.33-22.91c-0.2-0.56-0.39-1.12-0.61-1.67
					c0.11,4.72-0.73,9.47-2.44,13.87c-1.8-14.6-11.02-28.1-23.96-35.09c0.72,1.1,1.43,2.21,2.12,3.34
					c5.7,9.35,10.11,19.62,11.85,30.48c0.83,5.19,1.46,10.69,1.3,15.97c-0.08,2.86-0.39,5.71-0.92,8.51c-0.27,1.46-0.61,2.91-1,4.34
					c-0.28,1.02-1.15,2.57-1.12,3.6c-0.15-5.18-0.84-10.34-2.05-15.38c-3.08,10.96-6.51,22.24-13.07,31.52
					c1.24-1.75,1.32-4.05,1.24-6.19c-0.14-3.49-0.6-6.97-1.37-10.38c0.06,2.56-1.07,4.99-2.28,7.25c-2.4,4.45-5.73,8.49-9.52,11.97
					c1.27-5.41,2.1-10.93,2.29-16.48c0.15-4.35-0.11-8.72-0.88-13c-0.69-3.81-2.25-7.56-4.25-11.04c-0.12,5.46-1.34,10.77-3.9,15.9
					c0.07-7.34-3.3-14.22-5.12-21.33c-1.26,6.58,0.13,13.58-2.02,19.92c-0.9,2.67-2.37,5.05-4.13,7.24c1.17-5.36,1.06-11-0.4-16.29
					c0.14,0.5-1.04,2.37-1.25,2.9c-0.49,1.19-0.94,2.4-1.37,3.61c-0.82,2.32-1.55,4.67-2.23,7.04c-1.31,4.58-2.81,9.1-3.75,13.78
					c-0.66,3.29-1.27,6.6-1.66,9.93C359.74,460.39,359.79,453.58,360.54,446.87z"/>
				<path class="st8" d="M459.18,323.44c-0.13-1.84-0.27-3.69-0.4-5.53c-5.99,6.62-13.42,11.94-21.62,15.46
					c-2.51,1.08-5.14,2-7.87,2.18c-8.32,0.53-15.89-5.6-23.65-7.87c-8.87-2.59-18.29-3.48-27.46-2.26
					c-4.45,0.59-8.84,1.68-13.01,3.33c-4.28,1.7-8.45,3.88-13.12,4.26c-3.56,0.29-7.03-0.5-10.42-1.71c0.6,0.1,1.21,0.21,1.8,0.35
					c0.66,0.15,1.34,0.31,2.01,0.24c0.67-0.07,1.28-0.38,1.88-0.67c13.12-6.4,27.24-11.44,41.87-12.69
					c5.17-0.44,10.33,0.43,15.29,1.84c4.14,1.18,8.26,2.49,12.25,4.11c2.85,1.17,5.69,2.44,8.72,3.09c3.2,0.68,6.02,0.11,8.88-1.46
					c1.84-1.01,3.74-2.06,5.32-3.42c0.15,1.21,0.11,2.45-0.12,3.64c2-1.04,3.74-1.76,5.22-3.55c1.78-2.15,2.7-4.88,4.19-7.25
					c3.55-5.64,10.63-8.74,17.2-7.83c0.24,1.9,0.17,3.84-0.24,5.71c4.28-2.15,9.17-2.13,13.77-1.25c2.36,0.45,4.84,1.05,7.08,1.94
					c2.11,0.84,3.56,2.29,5.98,2.42c0.01,0.08,0.03,0.17,0.04,0.25c-5.42,0.68-10.95,0.3-16.42,0.61
					C470.18,317.75,463.69,319.17,459.18,323.44z"/>
				<path class="st8" d="M274.9,362.99c1.05-0.77,2.33-1.21,3.66-1.46c1.3-0.25,2.66-0.33,3.89-0.38c1.12-0.04,2.25-0.08,3.38-0.11
					c12.38,1.79,24.4,5.77,35.55,11.43c5.92,3.01,11.43,6.62,16.96,10.26c7.08,4.66,14.02,10.87,16.57,19.23
					c2.45,8.04,1.39,16.92-1.58,24.74c1.28-7.83,1.67-15.99-1.26-23.34c-3.34-8.4-12.13-13.75-19.12-18.88
					c-6.12-4.49-12.53-8.67-19.51-11.72c-7.02-3.07-14.26-6.41-22.11-6.26c-3.22,0.06-6.71,0.83-8.76,3.32
					c-2.36,2.86-2.05,7.18-0.43,10.51c0.43,0.89,0.97,1.83,0.8,2.8c-0.07,0.44-0.29,0.84-0.47,1.25c-0.91,2.09-0.94,4.54-0.08,6.65
					c-4.02-4-7.64-8.4-10.79-13.12c-1.08-1.61-2.13-3.38-2.14-5.32C269.46,369.02,272.08,365.05,274.9,362.99z"/>
			</g>
			<polygon class="st3" points="640.04,182.57 463.82,354.49 502.5,394.61 392.19,580.85 587.03,390.31 545.48,337.3 			"/>
			<polygon class="st10" points="512.67,393.42 475.3,354.66 599.2,233.78 535.59,337.87 576.12,389.59 430.7,531.81 			"/>
			<polygon class="st11" points="509.05,345.54 543.51,390.26 430.7,531.81 576.12,389.59 535.59,337.87 599.2,233.78 			"/>
		</g>
	</g>
</g>
</svg>
