<?xml version="1.0" encoding="utf-8"?>
<!-- Generator: Adobe Illustrator 16.0.0, SVG Export Plug-In . SVG Version: 6.00 Build 0)  -->
<!DOCTYPE svg PUBLIC "-//W3C//DTD SVG 1.1//EN" "http://www.w3.org/Graphics/SVG/1.1/DTD/svg11.dtd">
<svg version="1.1" id="Layer_1" xmlns="http://www.w3.org/2000/svg" xmlns:xlink="http://www.w3.org/1999/xlink" x="0px" y="0px"
	 width="1023.5px" height="1023.5px" viewBox="0 0 1023.5 1023.5" enable-background="new 0 0 1023.5 1023.5" xml:space="preserve">
<rect y="-1" fill="none" width="1024" height="1024"/>
<g>
	<g>
		<g>
			<g>
				<g>
					<path d="M332.267,979.725h4c3.144,0,5.735,0.83,7.769,2.486c2.053,1.641,3.076,3.999,3.076,7.077
						c0,3.162-1.016,5.583-3.052,7.253c-2.031,1.68-4.657,2.517-7.869,2.517h-3.925V979.725z M334.677,996.852h0.848
						c1.248,0,2.426-0.123,3.542-0.371c1.109-0.248,2.075-0.667,2.907-1.254c0.827-0.592,1.49-1.361,1.986-2.31
						c0.497-0.951,0.741-2.125,0.741-3.525c0-1.387-0.24-2.57-0.728-3.55c-0.488-0.984-1.167-1.749-2.04-2.298
						c-0.871-0.561-1.833-0.973-2.886-1.232c-1.047-0.255-2.222-0.383-3.522-0.383h-0.848V996.852z"/>
					<path d="M350.651,993.441c0.035,1.078,0.376,2.007,1.027,2.796c0.664,0.784,1.53,1.182,2.586,1.182
						c0.839,0,1.528-0.192,2.066-0.577c0.537-0.388,1.048-0.97,1.525-1.757l1.951,1.1c-0.566,1.025-1.34,1.826-2.324,2.413
						c-0.982,0.578-2.061,0.867-3.241,0.867c-1.797,0-3.231-0.595-4.31-1.793c-1.057-1.211-1.584-2.72-1.584-4.515
						c0-1.892,0.501-3.448,1.509-4.661c0.991-1.198,2.437-1.798,4.333-1.798c1.846,0,3.238,0.6,4.18,1.798
						c0.955,1.191,1.437,2.722,1.437,4.587v0.358H350.651z M357.497,991.696c-0.137-0.921-0.488-1.65-1.064-2.189
						c-0.575-0.539-1.321-0.809-2.242-0.809c-0.446,0-0.863,0.069-1.243,0.219c-0.384,0.147-0.729,0.354-1.029,0.628
						c-0.298,0.274-0.545,0.592-0.744,0.963c-0.193,0.371-0.327,0.766-0.396,1.188H357.497z"/>
					<path d="M366.6,989.801c-0.343-0.698-0.855-1.052-1.539-1.052c-0.323,0-0.615,0.115-0.872,0.344
						c-0.256,0.236-0.384,0.513-0.384,0.838c0,0.306,0.096,0.565,0.295,0.781c0.195,0.217,0.462,0.414,0.805,0.603
						c0.223,0.101,0.396,0.183,0.515,0.242c0.119,0.061,0.314,0.152,0.591,0.27c0.13,0.07,0.255,0.123,0.358,0.154
						c0.1,0.034,0.178,0.07,0.23,0.104c0.852,0.393,1.528,0.845,2.027,1.357c0.496,0.515,0.741,1.198,0.741,2.053
						c0,1.128-0.412,2.076-1.231,2.844c-0.807,0.751-1.768,1.127-2.898,1.127c-0.46,0-0.907-0.063-1.334-0.19
						c-0.426-0.125-0.823-0.308-1.191-0.539c-0.367-0.231-0.691-0.513-0.973-0.845c-0.281-0.334-0.501-0.707-0.654-1.114
						l1.974-0.899c0.563,1.024,1.289,1.542,2.178,1.542c0.361,0,0.693-0.104,1-0.298c0.309-0.198,0.535-0.443,0.68-0.744
						c0.145-0.299,0.176-0.623,0.09-0.972c-0.084-0.352-0.353-0.682-0.795-0.989l-2.257-1.203c-0.39-0.207-0.731-0.412-1.022-0.619
						c-0.292-0.199-0.531-0.421-0.719-0.651c-0.186-0.233-0.33-0.489-0.425-0.772c-0.091-0.279-0.138-0.609-0.138-0.984
						c0-0.975,0.34-1.793,1.024-2.46c0.684-0.688,1.521-1.027,2.512-1.027c1.504,0,2.599,0.7,3.283,2.104L366.6,989.801z"/>
					<path d="M374.879,981.57c0,0.431-0.153,0.792-0.462,1.103c-0.308,0.311-0.682,0.459-1.126,0.459s-0.82-0.148-1.128-0.459
						c-0.307-0.311-0.462-0.672-0.462-1.103c0-0.445,0.155-0.823,0.462-1.141c0.308-0.317,0.685-0.472,1.128-0.472
						s0.818,0.154,1.126,0.472C374.727,980.747,374.879,981.125,374.879,981.57z M374.444,999.058h-2.306v-12.003h2.306V999.058z"/>
					<path d="M389.368,998.824c0,2.26-0.428,4.012-1.284,5.258c-0.853,1.23-2.376,1.849-4.566,1.849
						c-1.689,0-3.077-0.491-4.151-1.461c-1.06-0.977-1.605-2.301-1.639-3.98h2.305c0,1.081,0.327,1.913,0.985,2.503
						c0.661,0.592,1.528,0.888,2.605,0.888c1.316,0,2.215-0.387,2.704-1.157c0.491-0.77,0.73-1.855,0.73-3.258v-2.281h-0.051
						c-0.479,0.722-1.069,1.279-1.783,1.682c-0.709,0.402-1.473,0.6-2.292,0.6c-1.779,0-3.179-0.621-4.205-1.868
						c-1.027-1.251-1.54-2.786-1.54-4.615c0-1.726,0.522-3.193,1.566-4.413c1.04-1.247,2.399-1.87,4.075-1.87
						c1.762,0,3.151,0.804,4.179,2.411h0.051v-2.055h2.31V998.824z M383.29,997.419c1.213,0,2.161-0.421,2.847-1.259
						c0.701-0.854,1.054-1.894,1.054-3.102c0-1.196-0.354-2.214-1.054-3.049c-0.686-0.843-1.634-1.261-2.847-1.261
						c-1.146,0-2.067,0.431-2.77,1.28c-0.681,0.84-1.024,1.846-1.024,3.029c0,1.208,0.343,2.238,1.024,3.075
						C381.223,996.988,382.144,997.419,383.29,997.419z"/>
					<path d="M394.672,988.672h0.055c0.341-0.628,0.837-1.119,1.485-1.458c0.648-0.345,1.36-0.516,2.13-0.516
						c0.784,0,1.452,0.12,1.997,0.356c0.549,0.243,0.989,0.582,1.321,1.027c0.335,0.447,0.573,0.986,0.717,1.629
						c0.145,0.641,0.22,1.372,0.22,2.195v7.151h-2.309v-6.87c0-1.184-0.168-2.043-0.512-2.589c-0.339-0.565-1.052-0.85-2.125-0.85
						c-0.397,0-0.731,0.038-1.003,0.115s-0.51,0.19-0.718,0.335c-0.206,0.146-0.372,0.31-0.514,0.5
						c-0.132,0.186-0.264,0.395-0.383,0.613c-0.053,0.123-0.1,0.274-0.139,0.463c-0.043,0.188-0.083,0.382-0.118,0.574
						c-0.034,0.197-0.06,0.397-0.077,0.593c-0.017,0.197-0.026,0.354-0.026,0.472v1.131v5.513h-2.305v-12.003h2.305V988.672z"/>
					<path d="M413.005,976.804h2.31v12.253h0.053c1.059-1.571,2.452-2.358,4.178-2.358c1.677,0,3.035,0.623,4.076,1.87
						c1.044,1.22,1.562,2.688,1.562,4.413c0,1.829-0.51,3.364-1.535,4.615c-1.025,1.247-2.426,1.868-4.206,1.868
						c-0.821,0-1.584-0.197-2.294-0.6s-1.303-0.96-1.78-1.682h-0.053v1.874h-2.31V976.804z M418.98,997.419
						c1.216,0,2.163-0.421,2.846-1.259c0.703-0.854,1.054-1.894,1.054-3.102c0-1.196-0.351-2.214-1.054-3.049
						c-0.683-0.843-1.63-1.261-2.846-1.261c-1.145,0-2.067,0.431-2.771,1.28c-0.682,0.84-1.024,1.846-1.024,3.029
						c0,1.208,0.343,2.238,1.024,3.075C416.913,996.988,417.836,997.419,418.98,997.419z"/>
					<path d="M425.519,987.055h2.692l4.052,7.618l3.766-7.618h2.592l-9.717,18.876h-2.616l4.718-8.923L425.519,987.055z"/>
					<path d="M450.26,994.211l-2.203,4.847h-2.591l9.231-20.153l9.229,20.153h-2.587l-2.207-4.847H450.26z M454.697,984.184
						l-3.437,7.818h6.87L454.697,984.184z"/>
					<path d="M467.693,999.058h-2.307v-22.254h2.307V999.058z"/>
					<path d="M473.387,999.058h-2.31v-22.254h2.31V999.058z"/>
					<path d="M482.154,989.877v1.923h-5.611v-1.923H482.154z"/>
					<path d="M491.128,979.135c-0.717-0.327-1.229-0.483-1.537-0.483c-0.5,0-0.854,0.154-1.079,0.472
						c-0.22,0.315-0.378,0.703-0.459,1.165c-0.052,0.342-0.081,0.613-0.092,0.809c-0.005,0.197-0.011,0.467-0.011,0.809v5.149h3.178
						v2.156h-3.178v9.847h-2.307v-9.847h-1.052v-2.156h1.052v-5.843c0-3.147,1.287-4.717,3.869-4.717
						c0.563,0,1.102,0.106,1.615,0.309V979.135z"/>
					<path d="M494.694,989.004h0.074c0.293-0.717,0.72-1.278,1.283-1.689c0.563-0.409,1.229-0.616,1.999-0.616
						c0.632,0,1.268,0.192,1.897,0.59l-1.05,2.104c-0.378-0.323-0.848-0.489-1.41-0.489c-1.181,0-1.965,0.479-2.358,1.438
						c-0.17,0.442-0.287,0.883-0.348,1.318c-0.062,0.438-0.088,0.936-0.088,1.499v5.9h-2.308v-12.003h2.308V989.004z"/>
					<path d="M502.614,993.441c0.036,1.078,0.38,2.007,1.025,2.796c0.668,0.784,1.53,1.182,2.591,1.182
						c0.837,0,1.525-0.192,2.064-0.577c0.537-0.388,1.045-0.97,1.523-1.757l1.951,1.1c-0.567,1.025-1.339,1.826-2.32,2.413
						c-0.984,0.578-2.066,0.867-3.245,0.867c-1.793,0-3.229-0.595-4.307-1.793c-1.058-1.211-1.589-2.72-1.589-4.515
						c0-1.892,0.503-3.448,1.514-4.661c0.987-1.198,2.434-1.798,4.331-1.798c1.846,0,3.239,0.6,4.18,1.798
						c0.956,1.191,1.437,2.722,1.437,4.587v0.358H502.614z M509.465,991.696c-0.143-0.921-0.498-1.65-1.066-2.189
						c-0.574-0.539-1.318-0.809-2.245-0.809c-0.445,0-0.856,0.069-1.245,0.219c-0.382,0.147-0.724,0.354-1.024,0.628
						c-0.299,0.274-0.546,0.592-0.743,0.963c-0.196,0.371-0.331,0.766-0.397,1.188H509.465z"/>
					<path d="M515.122,993.441c0.037,1.078,0.381,2.007,1.031,2.796c0.665,0.784,1.529,1.182,2.584,1.182
						c0.837,0,1.531-0.192,2.066-0.577c0.538-0.388,1.044-0.97,1.525-1.757l1.948,1.1c-0.567,1.025-1.337,1.826-2.316,2.413
						c-0.987,0.578-2.067,0.867-3.246,0.867c-1.797,0-3.231-0.595-4.307-1.793c-1.06-1.211-1.589-2.72-1.589-4.515
						c0-1.892,0.505-3.448,1.514-4.661c0.987-1.198,2.437-1.798,4.33-1.798c1.848,0,3.238,0.6,4.179,1.798
						c0.956,1.191,1.436,2.722,1.436,4.587v0.358H515.122z M521.973,991.696c-0.143-0.921-0.491-1.65-1.064-2.189
						c-0.575-0.539-1.322-0.809-2.245-0.809c-0.445,0-0.856,0.069-1.249,0.219c-0.379,0.147-0.722,0.354-1.019,0.628
						c-0.303,0.274-0.546,0.592-0.743,0.963c-0.198,0.371-0.332,0.766-0.397,1.188H521.973z"/>
					<path d="M531.737,989.877v1.923h-5.612v-1.923H531.737z"/>
					<path d="M543.713,997.184h-0.054c-0.477,0.722-1.07,1.279-1.779,1.682c-0.71,0.402-1.472,0.6-2.293,0.6
						c-1.779,0-3.182-0.621-4.207-1.868c-1.027-1.251-1.538-2.786-1.538-4.615c0-1.726,0.523-3.193,1.563-4.413
						c1.042-1.247,2.402-1.87,4.077-1.87c1.727,0,3.117,0.787,4.177,2.358h0.054v-12.253h2.31v22.254h-2.31V997.184z
						 M539.942,997.419c1.215,0,2.166-0.421,2.849-1.259c0.7-0.854,1.047-1.894,1.047-3.102c0-1.196-0.347-2.214-1.047-3.049
						c-0.683-0.843-1.634-1.261-2.849-1.261c-1.144,0-2.065,0.431-2.766,1.28c-0.686,0.84-1.024,1.846-1.024,3.029
						c0,1.208,0.339,2.238,1.024,3.075C537.877,996.988,538.799,997.419,539.942,997.419z"/>
					<path d="M549.789,988.547c1.244-1.232,2.769-1.849,4.563-1.849c1.794,0,3.309,0.616,4.538,1.849
						c1.247,1.229,1.87,2.74,1.87,4.536c0,1.795-0.623,3.306-1.87,4.538c-1.229,1.232-2.744,1.844-4.538,1.844
						c-1.795,0-3.319-0.611-4.563-1.844c-1.228-1.232-1.846-2.743-1.846-4.538C547.943,991.287,548.562,989.776,549.789,988.547z
						 M550.252,993.083c0,1.114,0.398,2.093,1.203,2.947c0.783,0.821,1.748,1.232,2.897,1.232c1.127,0,2.095-0.411,2.895-1.232
						c0.808-0.854,1.205-1.833,1.205-2.947c0-1.127-0.397-2.108-1.205-2.948c-0.8-0.82-1.768-1.232-2.895-1.232
						c-1.149,0-2.114,0.412-2.897,1.232C550.65,990.975,550.252,991.956,550.252,993.083z"/>
					<path d="M566.966,994.7l3.539-8.308l3.517,8.308l3.483-7.646h2.616l-6.1,12.41l-3.517-8.021l-3.539,8.021l-6.101-12.41h2.612
						L566.966,994.7z"/>
					<path d="M583.581,988.672h0.054c0.338-0.628,0.836-1.119,1.487-1.458c0.649-0.345,1.359-0.516,2.127-0.516
						c0.788,0,1.451,0.12,2.002,0.356c0.547,0.243,0.988,0.582,1.314,1.027c0.334,0.447,0.578,0.986,0.721,1.629
						c0.147,0.641,0.219,1.372,0.219,2.195v7.151h-2.312v-6.87c0-1.184-0.168-2.043-0.513-2.589c-0.334-0.565-1.047-0.85-2.122-0.85
						c-0.394,0-0.732,0.038-1.005,0.115c-0.273,0.077-0.51,0.19-0.713,0.335c-0.209,0.146-0.377,0.31-0.52,0.5
						c-0.132,0.186-0.261,0.395-0.38,0.613c-0.052,0.123-0.099,0.274-0.142,0.463c-0.045,0.188-0.081,0.382-0.114,0.574
						c-0.033,0.197-0.063,0.397-0.076,0.593c-0.022,0.197-0.028,0.354-0.028,0.472v1.131v5.513h-2.306v-12.003h2.306V988.672z"/>
					<path d="M597.094,999.058h-2.307v-22.254h2.307V999.058z"/>
					<path d="M601.144,988.547c1.247-1.232,2.769-1.849,4.566-1.849c1.794,0,3.308,0.616,4.537,1.849
						c1.245,1.229,1.87,2.74,1.87,4.536c0,1.795-0.625,3.306-1.87,4.538c-1.229,1.232-2.743,1.844-4.537,1.844
						c-1.798,0-3.319-0.611-4.566-1.844c-1.229-1.232-1.846-2.743-1.846-4.538C599.298,991.287,599.914,989.776,601.144,988.547z
						 M601.608,993.083c0,1.114,0.398,2.093,1.203,2.947c0.785,0.821,1.749,1.232,2.898,1.232c1.125,0,2.095-0.411,2.895-1.232
						c0.802-0.854,1.207-1.833,1.207-2.947c0-1.127-0.405-2.108-1.207-2.948c-0.8-0.82-1.77-1.232-2.895-1.232
						c-1.149,0-2.113,0.412-2.898,1.232C602.007,990.975,601.608,991.956,601.608,993.083z"/>
					<path d="M625.475,999.058h-2.308v-1.874h-0.048c-1.026,1.522-2.388,2.281-4.078,2.281c-1.763,0-3.162-0.621-4.207-1.868
						c-1.025-1.251-1.535-2.786-1.535-4.615c0-1.726,0.517-3.193,1.563-4.413c1.046-1.247,2.409-1.87,4.104-1.87
						c1.709,0,3.092,0.787,4.153,2.358h0.048v-2.002h2.308V999.058z M619.401,997.419c1.214,0,2.158-0.421,2.842-1.259
						c0.702-0.854,1.055-1.894,1.055-3.102c0-1.196-0.353-2.214-1.055-3.049c-0.684-0.843-1.628-1.261-2.842-1.261
						c-1.148,0-2.073,0.431-2.768,1.28c-0.689,0.84-1.027,1.846-1.027,3.029c0,1.208,0.338,2.238,1.027,3.075
						C617.328,996.988,618.253,997.419,619.401,997.419z"/>
					<path d="M637.423,997.184h-0.049c-0.479,0.722-1.072,1.279-1.781,1.682s-1.477,0.6-2.295,0.6c-1.778,0-3.181-0.621-4.202-1.868
						c-1.028-1.251-1.543-2.786-1.543-4.615c0-1.726,0.52-3.193,1.567-4.413c1.039-1.247,2.399-1.87,4.073-1.87
						c1.729,0,3.12,0.787,4.181,2.358h0.049v-12.253h2.31v22.254h-2.31V997.184z M633.656,997.419c1.212,0,2.156-0.421,2.841-1.259
						c0.704-0.854,1.056-1.894,1.056-3.102c0-1.196-0.352-2.214-1.056-3.049c-0.685-0.843-1.629-1.261-2.841-1.261
						c-1.148,0-2.07,0.431-2.769,1.28c-0.685,0.84-1.026,1.846-1.026,3.029c0,1.208,0.342,2.238,1.026,3.075
						C631.586,996.988,632.508,997.419,633.656,997.419z"/>
					<path d="M646.348,997.979c0,0.414-0.146,0.763-0.437,1.052c-0.291,0.291-0.643,0.434-1.055,0.434
						c-0.407,0-0.759-0.143-1.046-0.434c-0.291-0.289-0.437-0.638-0.437-1.052c0-0.392,0.146-0.741,0.437-1.039
						c0.287-0.296,0.639-0.448,1.046-0.448c0.412,0,0.764,0.152,1.055,0.448C646.201,997.238,646.348,997.588,646.348,997.979z"/>
					<path d="M658.965,990.465c-0.957-1.073-2.108-1.612-3.438-1.612c-1.113,0-2.063,0.418-2.844,1.256
						c-0.771,0.854-1.158,1.841-1.158,2.95c0,1.249,0.387,2.265,1.158,3.052c0.803,0.801,1.803,1.205,2.996,1.205
						c1.23,0,2.329-0.532,3.286-1.591v2.948c-0.997,0.527-2.095,0.792-3.312,0.792c-1.778,0-3.298-0.6-4.563-1.817
						c-1.25-1.198-1.87-2.695-1.87-4.49c0-1.843,0.62-3.381,1.87-4.61c1.246-1.232,2.814-1.849,4.693-1.849
						c1.233,0,2.288,0.265,3.182,0.794V990.465z"/>
					<path d="M662.22,988.547c1.245-1.232,2.769-1.849,4.563-1.849c1.794,0,3.304,0.616,4.535,1.849
						c1.253,1.229,1.874,2.74,1.874,4.536c0,1.795-0.621,3.306-1.874,4.538c-1.231,1.232-2.741,1.844-4.535,1.844
						c-1.795,0-3.318-0.611-4.563-1.844c-1.236-1.232-1.848-2.743-1.848-4.538C660.372,991.287,660.983,989.776,662.22,988.547z
						 M662.678,993.083c0,1.114,0.403,2.093,1.204,2.947c0.788,0.821,1.755,1.232,2.901,1.232c1.125,0,2.091-0.411,2.897-1.232
						c0.8-0.854,1.203-1.833,1.203-2.947c0-1.127-0.403-2.108-1.203-2.948c-0.807-0.82-1.772-1.232-2.897-1.232
						c-1.146,0-2.113,0.412-2.901,1.232C663.081,990.975,662.678,991.956,662.678,993.083z"/>
					<path d="M677.521,988.568h0.051c0.345-0.547,0.804-0.994,1.376-1.348c0.573-0.349,1.179-0.522,1.808-0.522
						c1.486,0,2.643,0.713,3.462,2.132c0.376-0.651,0.892-1.172,1.551-1.554c0.658-0.386,1.371-0.578,2.141-0.578
						c2.651,0,3.974,1.728,3.974,5.177v7.183h-2.308v-6.796c0-0.306-0.011-0.611-0.037-0.912c-0.024-0.296-0.075-0.587-0.141-0.868
						s-0.171-0.542-0.31-0.782c-0.134-0.238-0.325-0.455-0.563-0.643c-0.307-0.204-0.701-0.308-1.179-0.308
						c-0.479,0-0.89,0.104-1.23,0.308c-0.324,0.188-0.578,0.426-0.759,0.703c-0.177,0.286-0.316,0.643-0.421,1.065
						c-0.101,0.431-0.163,0.816-0.195,1.155c-0.023,0.342-0.034,0.736-0.034,1.177v5.9h-2.308v-6.36
						c0-0.411-0.014-0.748-0.026-1.022c-0.019-0.274-0.069-0.613-0.151-1.03c-0.087-0.439-0.198-0.768-0.338-0.972
						c-0.136-0.241-0.346-0.45-0.639-0.64c-0.289-0.19-0.64-0.284-1.053-0.284c-1.179,0-1.942,0.515-2.28,1.537
						c-0.153,0.486-0.259,0.932-0.304,1.36c-0.056,0.428-0.086,0.934-0.086,1.511v5.9h-2.304v-12.003h2.304V988.568z"/>
				</g>
				<g>
					<rect x="278.483" y="990.414" width="32.662" height="1.596"/>
					<rect x="713.009" y="990.414" width="32.656" height="1.596"/>
				</g>
			</g>
		</g>
	</g>
</g>
<g>
	<g>
		<path d="M310,703c0,0,38.696,0,57.75,0c1.681,0,2.25-0.087,2.25-1.765c0-95.073,0-196.308,0-291.379
			c0-3.186,0.935-0.66-1.03,0.714c1.022-0.714,2.254-1.431,3.277-2.145c6.242-4.357,12.589-8.717,18.834-13.074
			c22.09-15.425,44.233-30.848,66.327-46.271c34.417-24.027,68.82-48.057,103.237-72.084c-1.545-0.886-4.646-1.772-4.646-2.659
			c0,100.407,0,200.813,0,301.221c0,41.256,0,82.513,0,123.769c0-1.027,2.131-2.327,3.156-2.327c-32.61,0-65.22,0-97.831,0
			c1.027,0,0.675,1.3,3.675,2.327c0-88.877,0-177.752,0-266.627c0-101.854,0-203.706,0-305.557c0-1.388,0-2.774,0-4.16
			c-3,0.726-3.801,1.452-5.554,2.178c33.911,32.371,67.671,64.742,101.584,97.111c21.599,20.618,43.125,41.236,64.727,61.852
			c5.896,5.63,11.756,11.258,17.652,16.886c0.955,0.913,1.69,1.826,2.648,2.736c-1.532-1.46-1.058-2.879-1.058,0.252
			c0,104.701,0,209.401,0,314.102c0,4.39,0,8.78,0,13.171c0,1.679,1.8,2.729,3.477,2.729c36.154,0,72.313,0,108.466,0
			c-0.886,0-1.773-2.914-2.66-4.459c-7.368,13.096-14.733,26.28-22.102,39.376c-4.389,7.798-8.772,15.642-13.161,23.439
			c-0.963,1.713-1.926,3.822-2.888,5.534c1.114-1.98,3.738-0.891-0.728-0.891c-32.23,0-64.464,0-96.699,0
			c1.027,0,1.295,1.3,3.295,2.327c0-96.08,0-192.159,0-288.239c0-1.041,0-2.083,0-3.123c0-2.384-2.713-3.774-4.744-2.66
			c-43.953,24.102-88.341,48.206-132.293,72.31c-0.942,0.519-1.963,1.597-1.963,2.66c0,64.512,0,129.021,0,193.532
			c0,1.679,2.169,2.193,3.845,2.193c17.723,0,35.155,0,54.155,0c3,0,3-5,0-5c-19,0-36.433,0-54.155,0
			c1.027,2,2.155,1.779,2.155,2.807c0-50.919,0-101.836,0-152.755c0-11.039,0-22.081,0-33.119c0-2.319,0-4.638,0-6.957
			c0,0.203-2.609,2.807,1.443,0.586c23.535-12.906,47.299-25.813,70.834-38.719c19.583-10.74,39.97-21.479,59.553-32.219
			c-1.546-0.887-3.83-1.773-3.83-2.659c0,96.08,0,192.159,0,288.239c0,1.041,0,2.083,0,3.123c0,1.679,0.024,3.673,1.705,3.673
			c33.318,0,66.636,0,99.954,0c1.07,0,2.13-0.88,2.658-1.822c12.765-22.685,25.524-46.114,38.285-68.8
			c1.139-2.025-0.298-5.378-2.66-5.378c-36.153,0-72.312,0-108.466,0c1.026,2,3.523,3.244,3.523,4.271
			c0-101.421,0-202.845,0-304.267c0-7.07,0-14.14,0-21.21c0-2.48,0.268-5.021-1.676-6.874
			c-12.999-12.409-26.114-24.817-39.11-37.227c-44.16-42.15-88.37-84.301-132.53-126.452c-5.042-4.812-10.232-9.625-15.275-14.437
			c-1.925-1.839-5.408-0.556-5.408,2.178c0,88.876,0,177.752,0,266.627c0,101.853,0,203.705,0,305.556c0,1.389,0,2.774,0,4.16
			c0,1.679,1.649,3.673,3.325,3.673c32.611,0,65.221,0,97.831,0c1.678,0,3.844-1.994,3.844-3.673c0-100.406,0-200.813,0-301.22
			c0-41.257,0-82.513,0-123.77c0-2.192-3.053-4.031-5.018-2.659c-39.937,27.883-80.068,55.764-120.004,83.646
			c-21.216,14.809-42.856,29.618-64.072,44.429c-2.13,1.487-9.906,4.939-9.906,8.211c0,3.746,0,7.49,0,11.237
			c0,91.956,0,190.075,0,282.033c2-1.027,2.723-1.235,3.75-4.235c-19.054,0-38.75,0-57.75,0C306,697,306,703,310,703
			C310,703,306,703,310,703z"/>
	</g>
	<g>
		<g>
			<path d="M270.464,831.349v-59.434h25.352c11.315,0,16.956,4.75,16.956,14.251c0,7.745-5.52,13.459-16.583,17.168l20.41,28.015
				h-10.141l-18.905-26.723v-5.032c11.36-1.796,17.036-6.16,17.036-13.085c0-5.487-3.162-8.233-9.479-8.233h-16.951v53.073H270.464z
				"/>
			<path d="M363.566,771.915v6.234h-31.176v19.954h29.731v6.233h-29.731v20.779h31.789v6.232h-39.483v-59.434H363.566z"/>
			<path d="M377.782,831.349H369.8l25.231-59.434h8.512l25.363,59.434h-8.524l-7.694-18.71h-19.655l2.122-6.227h14.958
				l-11.095-26.932L377.782,831.349z"/>
			<path d="M444.687,771.915v53.201h31.1v6.232h-38.793v-59.434H444.687z"/>
			<path d="M544.568,771.915v6.234h-31.172v19.954h29.72v6.233h-29.72v20.779h31.802v6.232h-39.483v-59.434H544.568z"/>
			<path d="M555.996,829.265v-7.062c6.242,2.22,12.981,3.319,20.21,3.319c10.22,0,15.339-3.736,15.339-11.207
				c0-6.38-3.779-9.565-11.316-9.565h-7.649c-12.443,0-18.652-5.413-18.652-16.207c0-11.356,7.958-17.043,23.891-17.043
				c6.936,0,13.374,0.828,19.335,2.491v7.063c-5.961-2.214-12.399-3.32-19.335-3.32c-10.802,0-16.197,3.602-16.197,10.809
				c0,6.374,3.65,9.561,10.959,9.561h7.649c12.663,0,18.997,5.391,18.997,16.212c0,11.629-7.673,17.441-23.02,17.441
				C568.978,831.757,562.238,830.928,555.996,829.265z"/>
			<path d="M650.559,771.915v6.234h-18.704v53.199h-7.698v-53.199H605.46v-6.234H650.559z"/>
			<path d="M655.416,831.349h-7.979l25.223-59.434h8.525l25.351,59.434h-8.516l-7.69-18.71h-19.655l2.106-6.227h14.971
				L676.66,779.48L655.416,831.349z"/>
			<path d="M748.515,771.915v6.234h-18.696v53.199h-7.687v-53.199h-18.708v-6.234H748.515z"/>
			<path d="M796.514,771.915v6.234h-31.176v19.954h29.731v6.233h-29.731v20.779h31.806v6.232h-39.487v-59.434H796.514z"/>
		</g>
		<g>
			<path d="M353.634,869.314v2.787h-9.523v-18.011h2.892v15.011c0,0.137,0.077,0.213,0.217,0.213H353.634z"/>
			<path d="M390.238,853.895c5.283,0,9.539,4.104,9.539,9.197c0,5.095-4.256,9.202-9.539,9.202c-5.275,0-9.547-4.107-9.547-9.202
				C380.691,857.998,384.962,853.895,390.238,853.895z M390.238,869.51c3.654,0,6.61-2.879,6.61-6.418
				c0-3.529-2.957-6.386-6.61-6.386c-3.671,0-6.655,2.856-6.655,6.386C383.583,866.631,386.567,869.51,390.238,869.51z"/>
			<path d="M444.222,868.688c-1.304,1.901-3.919,3.605-7.75,3.605c-5.278,0-9.542-4.107-9.542-9.202
				c0-5.094,4.264-9.197,9.542-9.197c3.017,0,5.348,1.371,6.402,2.238l-1.877,2.138c-1.111-0.919-2.88-1.564-4.525-1.564
				c-3.646,0-6.638,2.856-6.638,6.386c0,3.539,2.992,6.418,6.787,6.418c2.138,0,3.839-0.793,4.641-1.78v-2.351
				c-0.356-0.023-0.754-0.057-1.151-0.057h-4.412v-2.728h8.524V868.688z"/>
			<path d="M480.511,853.895c5.292,0,9.547,4.104,9.547,9.197c0,5.095-4.256,9.202-9.547,9.202c-5.282,0-9.547-4.107-9.547-9.202
				C470.964,857.998,475.229,853.895,480.511,853.895z M480.511,869.51c3.659,0,6.64-2.879,6.64-6.418
				c0-3.529-2.981-6.386-6.64-6.386c-3.669,0-6.646,2.856-6.646,6.386C473.865,866.631,476.842,869.51,480.511,869.51z"/>
			<path d="M517.195,854.091h5.939c5.204,0,9.355,4.079,9.355,9.001c0,4.958-4.151,9.01-9.355,9.01h-5.939V854.091z
				 M523.135,869.314c3.644,0,6.463-2.708,6.463-6.223c0-3.502-2.775-6.193-6.405-6.193h-2.929c-0.092,0-0.145,0.024-0.145,0.117
				v12.158c0,0.096,0.053,0.141,0.145,0.141H523.135z"/>
			<path d="M562.627,869.174c0,0.096,0.049,0.141,0.137,0.141h6.675v2.787h-9.708v-18.011h9.708v2.808h-6.675
				c-0.088,0-0.137,0.024-0.137,0.117v4.521c0,0.092,0.049,0.112,0.137,0.112h6.675v2.816h-6.675c-0.088,0-0.137,0.051-0.137,0.128
				V869.174z"/>
			<path d="M599.178,868.019c0.465,0.862,1.248,1.508,2.547,1.508c1.292,0,2.435-1.119,2.435-2.375c0-1.748-1.544-2.422-2.924-2.977
				c-2.591-1.059-4.601-2.161-4.601-5.118c0-2.977,2.262-5.134,5.279-5.134c1.845,0,3.733,0.999,4.509,2.708l-2.616,1.234
				c-0.404-0.798-1.275-1.135-1.993-1.135c-1.224,0-2.255,1.056-2.255,2.19c0,1.412,0.982,1.869,2.175,2.442
				c3.722,1.561,5.287,2.696,5.287,5.788c0,2.856-2.392,5.143-5.26,5.143h-0.096c-2.584,0-4.505-1.604-5.011-3.505
				C597.518,868.544,598.327,868.287,599.178,868.019z"/>
			<path d="M637.064,854.111v17.99h-2.88v-17.99H637.064z"/>
			<path d="M681.658,868.688c-1.308,1.901-3.911,3.605-7.742,3.605c-5.294,0-9.543-4.107-9.543-9.202
				c0-5.094,4.249-9.197,9.543-9.197c3.018,0,5.355,1.371,6.391,2.238l-1.857,2.138c-1.127-0.919-2.889-1.564-4.533-1.564
				c-3.638,0-6.618,2.856-6.618,6.386c0,3.539,2.98,6.418,6.76,6.418c2.137,0,3.83-0.793,4.636-1.78v-2.351
				c-0.336-0.023-0.737-0.057-1.146-0.057h-4.408v-2.728h8.52V868.688z"/>
			<path d="M711.995,854.111c2.612,4.011,5.263,8.019,7.879,12.058c0.232,0.337,0.444,0.666,0.697,0.982v-13.04h2.924v17.99h-3.08
				l-7.825-12.01c-0.221-0.332-0.502-0.654-0.727-0.987c0,0.458-0.024,0.932-0.024,1.452v11.545h-2.893v-17.99H711.995z"/>
		</g>
	</g>
</g>
</svg>
